<svg width="51" height="46" viewBox="0 0 51 46" version="1.1" xmlns="http://www.w3.org/2000/svg" xmlns:xlink="http://www.w3.org/1999/xlink">
<title>Artboard-19virtual-sr</title>
<desc>Created using Figma</desc>
<g id="Canvas" transform="translate(-2326 795)">
<g id="Artboard-19virtual-sr">
<g id="Medical call center">
<g id="Vector">
<use xlink:href="#path0_fill" transform="translate(2326 -782.938)" fill="#3AA1C5"/>
</g>
<g id="Vector">
<use xlink:href="#path1_fill" transform="translate(2334.04 -795)" fill="#3AA1C5"/>
</g>
<g id="Vector">
<use xlink:href="#path2_fill" transform="translate(2337.67 -782.846)" fill="#3AA1C5"/>
</g>
<g id="Vector">
<use xlink:href="#path3_fill" transform="translate(2358.05 -772.314)" fill="#3AA1C5"/>
</g>
<g id="Vector">
<use xlink:href="#path4_fill" transform="translate(2354.1 -785.995)" fill="#3AA1C5"/>
</g>
<g id="Vector">
<use xlink:href="#path5_fill" transform="translate(2346.54 -769.334)" fill="#3AA1C5"/>
</g>
<g id="Vector">
<use xlink:href="#path6_fill" transform="translate(2351.27 -773.579)" fill="#3AA1C5"/>
</g>
</g>
</g>
</g>
<defs>
<path id="path0_fill" d="M 0.0139018 13.7112C 0.6228 11.1644 2.42169 9.59901 4.48194 8.2283C 5.09544 7.86792 5.64736 7.41174 6.11679 6.87704C 6.63003 6.25796 6.99434 5.52934 7.18166 4.74729C 7.40409 3.52949 6.54774 2.57861 5.38833 2.46184C 4.1622 2.3395 3.25024 3.01791 3.16405 4.31634C 3.114 5.20883 2.72753 5.33395 1.99908 5.27278C 1.44301 5.22552 0.85635 5.27278 0.300278 5.27278C -0.208527 3.11245 1.30399 0.568417 3.47545 0.156925C 4.59669 -0.0655352 5.75205 -0.0513297 6.86748 0.19863C 10.2929 1.03274 11.469 5.384 8.9889 7.98363C 8.0964 8.92061 6.96202 9.63238 5.9305 10.4387C 5.2521 10.9725 4.56535 11.4924 3.88138 12.0207L 3.95923 12.2793L 10.2734 12.2793L 10.2734 14.8872C 9.95924 14.9067 9.64784 14.9401 9.33366 14.9401C 6.51994 14.9401 3.70344 14.9401 0.889715 14.9401C 0.592217 14.9401 0.297497 14.9901 -8.48498e-07 15.0179L 0.0139018 13.7112Z"/>
<path id="path1_fill" d="M 7.63648e-07 32.8805L 3.00279 31.4431C 5.98889 37.1956 10.6293 40.7322 16.9963 41.811C 21.6729 42.6034 26.0714 41.6553 30.0918 39.1113C 33.8565 36.7278 36.6422 33.0739 37.9435 28.8124C 39.2448 24.5509 38.9755 19.9641 37.1845 15.8842C 33.2141 6.92587 23.9472 3.75348 17.2966 4.94348L 17.7192 6.42819L 11.0742 5.00464L 15.6395 3.39399e-07L 16.1956 1.55422C 23.8527 0.556071 30.5533 2.53847 36.0112 8.09918C 39.3838 11.5357 41.6192 15.6896 41.95 20.494C 42.8258 33.1419 35.7637 42.8425 24.2197 45.0779C 13.3457 47.1743 3.59222 40.9991 7.63648e-07 32.8805Z"/>
<path id="path2_fill" d="M 8.83597 9.32757L 10.4514 9.32757L 10.4514 11.6158L 8.86934 11.6158L 8.86934 14.8049L 5.95552 14.8049L 5.95552 11.6964L -5.09098e-07 11.6964C 0.0444852 10.3674 -0.180722 9.16353 0.622801 7.95964C 2.22429 5.55463 3.68119 3.04397 5.15756 0.561108C 5.23817 0.37895 5.37443 0.227016 5.54676 0.127112C 5.7191 0.0272083 5.91865 -0.015529 6.11678 0.00503693C 6.98704 0.0467423 7.86007 0.00503693 8.83597 0.00503693L 8.83597 9.32757ZM 5.88046 3.39707L 5.72197 3.35537L 2.28823 9.27753L 5.88046 9.27753L 5.88046 3.39707Z"/>
<path id="path3_fill" d="M 7.24283 2.60519L 1.5273e-06 2.60519L 1.5273e-06 2.03639e-06L 10.5654 2.03639e-06C 10.6265 1.16775 10.6905 2.18814 9.78685 3.23634C 7.14922 6.26179 5.53486 10.0432 5.17424 14.0408C 5.13254 14.4773 4.9963 14.6747 4.53198 14.6608C 3.74514 14.633 2.95552 14.6608 2.02966 14.6608C 2.26043 9.97591 4.38184 6.228 7.24283 2.60519Z"/>
<path id="path4_fill" d="M 1.85172 12.2475L 0 11.1854L 6.50047 1.69699e-07L 8.36053 1.0621L 1.85172 12.2475Z"/>
<path id="path5_fill" d="M 1.84894 8.49399L 5.09098e-07 7.40965L 4.44857 -3.39399e-07L 6.28916 1.08712L 1.84894 8.49399Z"/>
<path id="path6_fill" d="M 2.24764 4.37547C 1.95398 4.38346 1.66172 4.33224 1.38829 4.22485C 1.11486 4.11747 0.865844 3.95613 0.6561 3.75045C 0.446356 3.54477 0.280174 3.29896 0.167463 3.02768C 0.0547526 2.7564 -0.00217775 2.4652 6.32269e-05 2.17145C 0.0023042 1.87769 0.0636726 1.5874 0.180509 1.31787C 0.297345 1.04834 0.467259 0.805093 0.680117 0.602637C 0.892975 0.40018 1.14442 0.242661 1.41946 0.139463C 1.6945 0.0362656 1.9875 -0.0104942 2.281 0.00197261C 2.57499 -0.00502211 2.86724 0.0489378 3.13934 0.160459C 3.41144 0.271981 3.6575 0.438647 3.86201 0.649953C 4.06653 0.861259 4.22507 1.11263 4.32765 1.38823C 4.43022 1.66382 4.47461 1.95768 4.45802 2.25128C 4.46104 2.53843 4.40527 2.82316 4.29413 3.08795C 4.18299 3.35274 4.01885 3.59198 3.81179 3.79096C 3.60474 3.98994 3.35916 4.14445 3.09016 4.24497C 2.82116 4.34549 2.53444 4.3899 2.24764 4.37547Z"/>
</defs>
</svg>
