<svg width="30" height="30" viewBox="0 0 30 30" version="1.1" xmlns="http://www.w3.org/2000/svg" xmlns:xlink="http://www.w3.org/1999/xlink">
<title>checked (1)</title>
<desc>Created using Figma</desc>
<g id="Canvas" transform="translate(-2433 780)">
<g id="checked (1)">
<g id="Group">
<g id="Vector">
<use xlink:href="#path0_fill" transform="matrix(0.525597 0 0 0.525597 2433 -780)" fill="#3AA1C5"/>
</g>
<g id="Vector">
<use xlink:href="#path1_fill" transform="matrix(0.525597 0 0 0.525597 2447.3 -773.18)" fill="#1D6797"/>
</g>
<g id="Vector">
<use xlink:href="#path2_fill" transform="matrix(0.525597 0 0 0.525597 2438.62 -776.725)" fill="#082F4B"/>
</g>
<g id="Vector">
<use xlink:href="#path3_fill" transform="matrix(0.525597 0 0 0.525597 2438.64 -774.211)" fill="#0A3452"/>
</g>
</g>
</g>
</g>
<defs>
<path id="path0_fill" d="M 28.539 57.0779C 44.3006 57.0779 57.0779 44.3006 57.0779 28.539C 57.0779 12.7773 44.3006 0 28.539 0C 12.7773 0 0 12.7773 0 28.539C 0 44.3006 12.7773 57.0779 28.539 57.0779Z"/>
<path id="path1_fill" d="M 25.2393 1.31301e-07L 2.48781e-07 26.1312L 0.0446098 28.9405L 1.20401 28.9405L 28.5392 6.91181C 27.7365 4.45929 26.6217 2.09587 25.2393 1.31301e-07Z"/>
<path id="path2_fill" d="M 45.8522 5.49607L 40.8132 0.501691C 40.1443 -0.16723 39.0295 -0.16723 38.3161 0.501691L 16.7779 22.7533L 7.45811 13.5673C 6.78919 12.8984 5.6744 12.8984 4.96098 13.5673L 0.501691 17.982C -0.16723 18.6509 -0.16723 19.7657 0.501691 20.4346L 15.3956 35.1946C 15.797 35.5959 16.3321 35.7297 16.8672 35.685C 17.4023 35.7297 17.9373 35.5958 18.3387 35.1946L 45.8522 7.9932C 46.5212 7.27967 46.5212 6.16488 45.8522 5.49607Z"/>
<path id="path3_fill" d="M 18.2941 30.412L 45.8076 3.21066C 46.4765 2.54174 46.4765 1.42695 45.8076 0.758027L 45.005 -1.38212e-07L 16.7779 27.7365L 1.17061 12.5305L 0.501691 13.1994C -0.16723 13.8683 -0.16723 14.9831 0.501691 15.6521L 15.3956 30.4121C 15.797 30.8135 16.3321 30.9472 16.8672 30.9026C 17.3576 30.9471 17.8927 30.8134 18.2941 30.412Z"/>
</defs>
</svg>
