<svg width="35" height="35" viewBox="0 0 35 35" version="1.1" xmlns="http://www.w3.org/2000/svg" xmlns:xlink="http://www.w3.org/1999/xlink">
<title>circle</title>
<desc>Created using Figma</desc>
<g id="Canvas" transform="translate(-2293 683)">
<g id="circle">
<g id="Group">
<g id="check circle outline">
<g id="Vector">
<use xlink:href="#path0_fill" transform="translate(2293 -683)" fill="#FFFFFF"/>
</g>
</g>
</g>
</g>
</g>
<defs>
<path id="path0_fill" d="M 10.325 14.175L 7.875 16.625L 15.75 24.5L 33.25 7L 30.8 4.55L 15.75 19.6L 10.325 14.175ZM 31.5 17.5C 31.5 25.2 25.2 31.5 17.5 31.5C 9.8 31.5 3.5 25.2 3.5 17.5C 3.5 9.8 9.8 3.5 17.5 3.5C 18.9 3.5 20.125 3.675 21.35 4.025L 24.1501 1.225C 22.05 0.525 19.775 0 17.5 0C 7.875 0 0 7.875 0 17.5C 0 27.125 7.875 35 17.5 35C 27.125 35 35 27.125 35 17.5L 31.5 17.5Z"/>
</defs>
</svg>
