<svg width="50" height="50" viewBox="0 0 50 50" version="1.1" xmlns="http://www.w3.org/2000/svg" xmlns:xlink="http://www.w3.org/1999/xlink">
<title>circle</title>
<desc>Created using Figma</desc>
<g id="Canvas" transform="translate(-2293 683)">
<g id="circle">
<g id="Group">
<g id="check circle outline">
<g id="Vector">
<use xlink:href="#path0_fill" transform="translate(2293 -683)" fill="#FFFFFF"/>
</g>
</g>
</g>
</g>
</g>
<defs>
<path id="path0_fill" d="M 14.75 20.25L 11.25 23.75L 22.5 35L 47.5 10L 44 6.5L 22.5 28L 14.75 20.25ZM 45 25C 45 36 36 45 25 45C 14 45 5 36 5 25C 5 14 14 5 25 5C 27 5 28.75 5.25 30.5 5.75L 34.5001 1.75C 31.5 0.75 28.25 0 25 0C 11.25 0 0 11.25 0 25C 0 38.75 11.25 50 25 50C 38.75 50 50 38.75 50 25L 45 25Z"/>
</defs>
</svg>
