<svg width="191" height="95" viewBox="0 0 191 95" version="1.1" xmlns="http://www.w3.org/2000/svg" xmlns:xlink="http://www.w3.org/1999/xlink">
<title>logo</title>
<desc>Created by andrushkov.konstantin@gmail.com</desc>
<g id="Canvas" transform="translate(-1500 684)">
<g id="logo">
<g id="Ellipse 3">
<use xlink:href="#path0_fill" transform="translate(1508.44 -684)" fill="#082F4B"/>
</g>
<g id="Ellipse 4">
<use xlink:href="#path1_fill" transform="translate(1559.04 -683.85)" fill="#082F4B"/>
</g>
<g id="Ellipse 2">
<use xlink:href="#path2_fill" transform="translate(1500 -652.362)" fill="#3AA1C5"/>
</g>
<g id="Ellipse 3">
<use xlink:href="#path3_fill" transform="translate(1552.71 -672.401)" fill="#808889"/>
</g>
<g id="&#208;&#154;&#208;&#190;&#208;&#188;&#208;&#191;&#208;&#176;&#208;&#189;&#208;&#184;&#209;&#143; &#208;&#144;&#208;&#186;&#209;&#131;&#208;&#187;&#208;&#176;">
<use xlink:href="#path4_fill" transform="translate(1506.33 -606.964)" fill="#082F4B"/>
<use xlink:href="#path5_fill" transform="translate(1506.33 -606.964)" fill="#082F4B"/>
<use xlink:href="#path6_fill" transform="translate(1506.33 -606.964)" fill="#082F4B"/>
<use xlink:href="#path7_fill" transform="translate(1506.33 -606.964)" fill="#082F4B"/>
<use xlink:href="#path8_fill" transform="translate(1506.33 -606.964)" fill="#082F4B"/>
<use xlink:href="#path9_fill" transform="translate(1506.33 -606.964)" fill="#082F4B"/>
<use xlink:href="#path10_fill" transform="translate(1506.33 -606.964)" fill="#082F4B"/>
<use xlink:href="#path11_fill" transform="translate(1506.33 -606.964)" fill="#082F4B"/>
<use xlink:href="#path12_fill" transform="translate(1506.33 -606.964)" fill="#082F4B"/>
<use xlink:href="#path13_fill" transform="translate(1506.33 -606.964)" fill="#082F4B"/>
<use xlink:href="#path14_fill" transform="translate(1506.33 -606.964)" fill="#082F4B"/>
<use xlink:href="#path15_fill" transform="translate(1506.33 -606.964)" fill="#082F4B"/>
<use xlink:href="#path16_fill" transform="translate(1506.33 -606.964)" fill="#082F4B"/>
</g>
</g>
</g>
<defs>
<path id="path0_fill" d="M 68.0209 0.272987C 65.2679 1.09492 20.2756 19.3719 13.1822 47.8629C 5.27268 50.8931 -2.29509e-08 46.2811 7.49255e-17 45.7545C 7.49255e-17 45.7545 8.96425 48.3909 11.0732 45.7544C 30.2786 -2.50261 70.7738 -0.548949 68.0209 0.272987Z"/>
<path id="path1_fill" d="M 4.23085 24.8819C 4.23085 35.1492 9.64825 46.2325 23.2134 45.725C 13.4623 49.3556 -0.476495 39.2832 0.0125232 24.8819C 0.859819 11.9351 6.91057 0.406147 17.4132 0.377726C 17.4578 -2.78105 4.23085 14.6147 4.23085 24.8819Z"/>
<path id="path2_fill" d="M 190.88 17.6805C 190.88 17.6805 138.151 -10.266 95.9672 17.6806C 53.7837 45.6271 0 20.3173 0 20.3173C 0 20.3173 54.8385 37.1903 95.9672 10.2984C 137.096 -16.5935 190.88 17.6805 190.88 17.6805Z"/>
<path id="path3_fill" d="M 2.66487 14.2369C 2.66487 22.0997 6.88321 28.4738 6.88321 28.4738C 6.47255 28.6012 -0.498468 22.2632 0.0284099 14.2369C 0.0284099 6.37408 6.88321 0 6.88321 0C 6.88321 0 2.66487 6.37408 2.66487 14.2369Z"/>
<path id="path4_fill" d="M 5.95422 6.29993L 5.95422 6.37676C 6.19751 6.41517 6.42159 6.45999 6.62647 6.51121C 6.83134 6.54962 7.02341 6.62005 7.20268 6.72249C 7.39475 6.82493 7.56121 6.91456 7.70207 6.99139C 7.84292 7.06822 7.98377 7.20907 8.12462 7.41394C 8.27828 7.60602 8.39993 7.75967 8.48956 7.87492C 8.592 7.99016 8.70724 8.20144 8.83529 8.50875C 8.97614 8.81606 9.08498 9.05935 9.16181 9.23862C 9.23864 9.40508 9.34748 9.70599 9.48833 10.1414C 9.64199 10.5767 9.75723 10.916 9.83406 11.1593C 9.91089 11.3898 10.0389 11.7868 10.2182 12.3502C 10.3463 12.7471 10.4423 13.048 10.5063 13.2529L 7.45237 13.2529C 6.73531 10.9096 6.24873 9.47551 5.99263 8.95051C 5.59568 8.14381 5.0963 7.66364 4.49447 7.50998C 4.26399 7.44596 4.00149 7.41394 3.70698 7.41394L 2.76583 7.41394C 2.86827 7.88772 2.91949 8.31028 2.91949 8.68161L 2.91949 13.2529L 0 13.2529L 0 0L 2.91949 0L 2.91949 3.74539C 2.91949 4.24477 2.86827 4.76977 2.76583 5.32037L 3.66857 5.32037C 4.5777 5.32037 5.23075 4.97464 5.62769 4.28319C 6.03745 3.59173 6.53683 2.22802 7.12585 0.192071C 7.15146 0.102438 7.17067 0.0384145 7.18347 0L 10.1606 0C 9.44352 2.25363 8.98895 3.59173 8.79687 4.01429C 8.34871 5.01306 7.7853 5.6725 7.10664 5.99262C 6.78653 6.13347 6.40238 6.23591 5.95422 6.29993Z"/>
<path id="path5_fill" d="M 12.6164 4.64812C 13.3591 3.89264 14.6203 3.5149 16.4002 3.5149C 18.1801 3.5149 19.4349 3.89264 20.1648 4.64812C 20.8947 5.4036 21.2596 6.69688 21.2596 8.52796C 21.2596 10.3462 20.8947 11.6331 20.1648 12.3886C 19.4349 13.1313 18.1801 13.5026 16.4002 13.5026C 14.6203 13.5026 13.3591 13.1313 12.6164 12.3886C 11.8865 11.6331 11.5216 10.3462 11.5216 8.52796C 11.5216 6.69688 11.8865 5.4036 12.6164 4.64812ZM 16.4002 5.64689C 15.6447 5.64689 15.1389 5.83896 14.8828 6.2231C 14.6267 6.60725 14.4987 7.37553 14.4987 8.52796C 14.4987 9.65477 14.6267 10.4103 14.8828 10.7944C 15.1389 11.1785 15.6447 11.3706 16.4002 11.3706C 17.1429 11.3706 17.6423 11.1785 17.8984 10.7944C 18.1673 10.4103 18.3017 9.65477 18.3017 8.52796C 18.3017 7.38833 18.1673 6.62645 17.8984 6.24231C 17.6423 5.84536 17.1429 5.64689 16.4002 5.64689Z"/>
<path id="path6_fill" d="M 32.1667 3.7838L 34.7405 3.7838C 35.3807 3.7838 35.7136 4.11032 35.7392 4.76336L 36.0466 13.2529L 33.4536 13.2529L 33.1847 5.85817L 32.9158 5.85817L 31.3792 11.1593C 31.2384 11.7483 30.8862 12.0429 30.3228 12.0429L 28.7863 12.0429C 28.1972 12.0429 27.8323 11.7483 27.6915 11.1593L 26.1741 5.85817L 25.9052 5.85817L 25.6747 13.2529L 23.1009 13.2529L 23.3891 4.76336C 23.3891 4.11032 23.722 3.7838 24.3878 3.7838L 26.9232 3.7838C 27.5122 3.7838 27.8643 4.07831 27.9796 4.66733L 29.1704 8.85448C 29.2344 9.09777 29.3241 9.56514 29.4393 10.2566L 29.6506 10.2566C 29.6634 10.1926 29.6954 9.9877 29.7466 9.64197C 29.8106 9.29624 29.8683 9.03374 29.9195 8.85448L 31.0911 4.66733C 31.2064 4.07831 31.5649 3.7838 32.1667 3.7838Z"/>
<path id="path7_fill" d="M 47.3059 3.76459L 47.3059 13.2529L 44.5592 13.2529L 44.5592 5.80055L 41.0635 5.80055L 41.0635 13.2529L 38.2977 13.2529L 38.2977 3.76459L 47.3059 3.76459Z"/>
<path id="path8_fill" d="M 49.9512 5.89658L 49.7015 3.97587C 51.4045 3.66856 53.0435 3.5149 54.6185 3.5149C 55.899 3.5149 56.8402 3.7774 57.442 4.30239C 58.0566 4.81458 58.3639 5.71091 58.3639 6.99139L 58.3639 13.2529L 56.1167 13.2529L 55.8286 11.8124C 54.881 12.9264 53.7094 13.4834 52.3137 13.4834C 51.4045 13.4834 50.6619 13.2465 50.0856 12.7727C 49.5222 12.2861 49.2405 11.6139 49.2405 10.756L 49.2405 9.79563C 49.2405 9.04015 49.4966 8.45113 50.0088 8.02857C 50.521 7.60602 51.2317 7.39474 52.1408 7.39474L 55.5213 7.39474L 55.5213 6.97218C 55.5085 6.49841 55.3932 6.17829 55.1755 6.01183C 54.9707 5.83256 54.5673 5.74293 53.9655 5.74293C 52.9283 5.74293 51.5902 5.79414 49.9512 5.89658ZM 52.0448 10.0069L 52.0448 10.3718C 52.0448 11.0249 52.4097 11.3514 53.1396 11.3514C 53.8951 11.3514 54.689 11.0441 55.5213 10.4295L 55.5213 9.10417L 52.9667 9.10417C 52.3521 9.11697 52.0448 9.41789 52.0448 10.0069Z"/>
<path id="path9_fill" d="M 69.8746 3.7838L 69.8746 13.2529L 67.0895 13.2529L 67.0895 9.23862L 63.4978 9.23862L 63.4978 13.2529L 60.6935 13.2529L 60.6935 3.7838L 63.4978 3.7838L 63.4978 7.26029L 67.0895 7.26029L 67.0895 3.7838L 69.8746 3.7838Z"/>
<path id="path10_fill" d="M 81.5048 13.2721L 78.9694 13.2721L 78.9694 8.31668C 78.9694 7.94534 79.0015 7.43955 79.0655 6.79932L 78.9887 6.79932C 78.8478 7.26029 78.6109 7.72766 78.278 8.20144L 74.7055 13.2529L 72.2854 13.2529L 72.2854 3.7838L 74.8015 3.7838L 74.8015 8.83527C 74.8015 9.1938 74.7695 9.66118 74.7055 10.2374L 74.7631 10.2374C 74.9295 9.81483 75.1664 9.38587 75.4737 8.95051L 79.0847 3.7838L 81.5048 3.7838L 81.5048 13.2721Z"/>
<path id="path11_fill" d="M 85.8157 9.21941L 85.8157 9.12338C 84.4328 8.86728 83.7414 8.01577 83.7414 6.56883C 83.7414 5.45482 84.0231 4.68013 84.5865 4.24477C 85.1499 3.80941 86.2191 3.59173 87.7941 3.59173C 89.9197 3.59173 91.4434 3.63655 92.3654 3.72618L 92.3654 13.2529L 89.5996 13.2529L 89.5996 10.0261L 87.8517 10.0261C 87.2115 10.0261 86.8465 10.2566 86.7569 10.7176L 86.1231 13.2529L 83.2036 13.2529L 84.0103 10.3142C 84.1895 9.68679 84.7914 9.32185 85.8157 9.21941ZM 89.5996 8.16302L 89.5996 5.6853L 87.8517 5.6853C 87.2883 5.6853 86.9234 5.76213 86.7569 5.91579C 86.5904 6.05664 86.5072 6.36396 86.5072 6.83773C 86.5072 7.37553 86.5904 7.73406 86.7569 7.91333C 86.9234 8.07979 87.2883 8.16302 87.8517 8.16302L 89.5996 8.16302Z"/>
<path id="path12_fill" d="M 106.257 9.77642L 101.705 9.77642L 100.744 13.2529L 97.7482 13.2529L 101.57 0.768285C 101.622 0.537799 101.743 0.35213 101.935 0.211278C 102.127 0.0704259 102.345 0 102.588 0L 105.354 0C 105.905 0 106.244 0.256095 106.372 0.768285L 110.194 13.2529L 107.217 13.2529L 106.257 9.77642ZM 105.623 7.50998L 104.509 3.45728C 104.355 2.81704 104.266 2.40089 104.24 2.20882L 103.722 2.20882C 103.696 2.33687 103.651 2.54174 103.587 2.82345C 103.523 3.10515 103.472 3.31643 103.433 3.45728L 102.319 7.50998L 105.623 7.50998Z"/>
<path id="path13_fill" d="M 116.963 8.27826L 116.963 8.35509C 117.347 8.40631 117.661 8.46393 117.904 8.52796C 118.147 8.57918 118.384 8.69442 118.615 8.87368C 118.845 9.05295 119.018 9.21941 119.133 9.37307C 119.261 9.52673 119.421 9.82764 119.613 10.2758C 119.805 10.7112 119.959 11.1145 120.074 11.4859C 120.202 11.8572 120.395 12.4462 120.651 13.2529L 117.693 13.2529C 117.129 11.4602 116.713 10.359 116.444 9.94928C 116.175 9.53953 115.702 9.33466 115.023 9.33466L 114.159 9.33466C 114.223 9.65477 114.255 9.92367 114.255 10.1414L 114.255 13.2529L 111.431 13.2529L 111.431 3.7838L 114.255 3.7838L 114.255 6.2039C 114.255 6.58804 114.216 6.97218 114.139 7.35632L 114.85 7.35632C 115.58 7.35632 116.086 7.15145 116.367 6.7417C 116.649 6.31914 117.014 5.33317 117.462 3.7838L 120.343 3.7838C 119.754 5.56366 119.357 6.63926 119.152 7.0106C 118.845 7.574 118.391 7.93894 117.789 8.1054C 117.571 8.16942 117.296 8.22705 116.963 8.27826Z"/>
<path id="path14_fill" d="M 131.723 3.7838L 128.361 13.3874C 127.862 14.9495 126.998 16.0443 125.768 16.6718C 124.821 17.2096 123.528 17.3376 121.889 17.0559L 122.119 15.1736C 123.284 15.212 124.11 15.084 124.597 14.7895C 125.096 14.495 125.493 13.9828 125.788 13.2529L 125.25 13.2529C 124.763 13.2529 124.45 13.0224 124.309 12.5615L 121.236 3.7838L 124.251 3.7838L 126.018 9.91087C 126.172 10.4999 126.274 10.9737 126.325 11.3322L 126.556 11.3322C 126.761 10.6023 126.889 10.1285 126.94 9.91087L 128.688 3.7838L 131.723 3.7838Z"/>
<path id="path15_fill" d="M 141.389 3.7838L 141.389 13.2529L 138.546 13.2529L 138.546 5.76213L 137.317 5.76213C 136.997 5.76213 136.76 5.83256 136.606 5.97341C 136.466 6.11426 136.37 6.35755 136.318 6.70328C 136.049 8.82887 135.819 10.263 135.627 11.0057C 135.243 12.8239 133.956 13.605 131.766 13.3489L 131.478 11.2362C 132.003 11.1465 132.375 11.0441 132.592 10.9288C 132.823 10.8008 132.989 10.5639 133.092 10.2182C 133.335 9.50112 133.54 8.15662 133.706 6.18469C 133.86 4.5841 134.737 3.7838 136.338 3.7838L 141.389 3.7838Z"/>
<path id="path16_fill" d="M 144.036 5.89658L 143.787 3.97587C 145.49 3.66856 147.129 3.5149 148.704 3.5149C 149.984 3.5149 150.925 3.7774 151.527 4.30239C 152.142 4.81458 152.449 5.71091 152.449 6.99139L 152.449 13.2529L 150.202 13.2529L 149.914 11.8124C 148.966 12.9264 147.794 13.4834 146.399 13.4834C 145.49 13.4834 144.747 13.2465 144.171 12.7727C 143.607 12.2861 143.326 11.6139 143.326 10.756L 143.326 9.79563C 143.326 9.04015 143.582 8.45113 144.094 8.02857C 144.606 7.60602 145.317 7.39474 146.226 7.39474L 149.606 7.39474L 149.606 6.97218C 149.593 6.49841 149.478 6.17829 149.261 6.01183C 149.056 5.83256 148.652 5.74293 148.05 5.74293C 147.013 5.74293 145.675 5.79414 144.036 5.89658ZM 146.13 10.0069L 146.13 10.3718C 146.13 11.0249 146.495 11.3514 147.225 11.3514C 147.98 11.3514 148.774 11.0441 149.606 10.4295L 149.606 9.10417L 147.052 9.10417C 146.437 9.11697 146.13 9.41789 146.13 10.0069Z"/>
</defs>
</svg>
