<svg width="180" height="49" viewBox="0 0 180 49" version="1.1" xmlns="http://www.w3.org/2000/svg" xmlns:xlink="http://www.w3.org/1999/xlink">
<title>logo</title>
<desc>Created using Figma</desc>
<g id="Canvas" transform="translate(-1495 811)">
<g id="logo">
<g id="Ellipse 3">
<use xlink:href="#path0_fill" transform="translate(1501.62 -811)" fill="#082F4B"/>
</g>
<g id="Ellipse 4">
<use xlink:href="#path1_fill" transform="translate(1541.32 -810.883)" fill="#082F4B"/>
</g>
<g id="Ellipse 2">
<use xlink:href="#path2_fill" transform="translate(1495 -786.18)" fill="#3AA1C5"/>
</g>
<g id="Ellipse 3">
<use xlink:href="#path3_fill" transform="translate(1536.35 -801.901)" fill="#808889"/>
</g>
<g id="&#208;&#154;&#208;&#190;&#208;&#188;&#208;&#191;&#208;&#176;&#208;&#189;&#208;&#184;&#209;&#143; &#208;&#144;&#208;&#186;&#209;&#131;&#208;&#187;&#208;&#176;">
<use xlink:href="#path4_fill" transform="translate(1555.41 -800.017)" fill="#082F4B"/>
<use xlink:href="#path5_fill" transform="translate(1555.41 -800.017)" fill="#082F4B"/>
<use xlink:href="#path6_fill" transform="translate(1555.41 -800.017)" fill="#082F4B"/>
<use xlink:href="#path7_fill" transform="translate(1555.41 -800.017)" fill="#082F4B"/>
<use xlink:href="#path8_fill" transform="translate(1555.41 -800.017)" fill="#082F4B"/>
<use xlink:href="#path9_fill" transform="translate(1555.41 -800.017)" fill="#082F4B"/>
<use xlink:href="#path10_fill" transform="translate(1555.41 -800.017)" fill="#082F4B"/>
<use xlink:href="#path11_fill" transform="translate(1555.41 -800.017)" fill="#082F4B"/>
<use xlink:href="#path12_fill" transform="translate(1555.41 -800.017)" fill="#082F4B"/>
<use xlink:href="#path13_fill" transform="translate(1555.41 -800.017)" fill="#082F4B"/>
<use xlink:href="#path14_fill" transform="translate(1555.41 -800.017)" fill="#082F4B"/>
<use xlink:href="#path15_fill" transform="translate(1555.41 -800.017)" fill="#082F4B"/>
<use xlink:href="#path16_fill" transform="translate(1555.41 -800.017)" fill="#082F4B"/>
</g>
</g>
</g>
<defs>
<path id="path0_fill" d="M 53.3616 0.214155C 51.2019 0.858954 15.906 15.197 10.3412 37.5479C 4.13635 39.925 -1.80047e-08 36.307 5.87782e-17 35.8938C 5.87782e-17 35.8938 7.03235 37.9621 8.6868 35.8938C 23.7532 -1.96327 55.5212 -0.430644 53.3616 0.214155Z"/>
<path id="path1_fill" d="M 3.31905 19.5196C 3.31905 27.5741 7.56894 36.2688 18.2107 35.8707C 10.5611 38.7189 -0.373804 30.8172 0.0098243 19.5196C 0.674518 9.36293 5.42126 0.318618 13.6605 0.296321C 13.6954 -2.1817 3.31905 11.465 3.31905 19.5196Z"/>
<path id="path2_fill" d="M 149.743 13.8702C 149.743 13.8702 108.378 -8.05355 75.2851 13.8702C 42.1927 35.7939 0 15.9387 0 15.9387C 0 15.9387 43.0202 29.1753 75.2851 8.07896C 107.55 -13.0174 149.743 13.8702 149.743 13.8702Z"/>
<path id="path3_fill" d="M 2.09056 11.1687C 2.09056 17.337 5.3998 22.3374 5.3998 22.3374C 5.07764 22.4373 -0.391043 17.4652 0.0222872 11.1687C 0.0222872 5.00039 5.3998 0 5.3998 0C 5.3998 0 2.09056 5.00039 2.09056 11.1687Z"/>
<path id="path4_fill" d="M 4.67101 4.94222L 4.67101 5.00249C 4.86187 5.03263 5.03766 5.06779 5.19838 5.10797C 5.35911 5.1381 5.50979 5.19335 5.65042 5.27371C 5.8011 5.35407 5.93168 5.42439 6.04218 5.48466C 6.15268 5.54493 6.26318 5.65543 6.37367 5.81615C 6.49421 5.96683 6.58964 6.08737 6.65996 6.17778C 6.74032 6.26819 6.83073 6.43393 6.93118 6.67501C 7.04168 6.9161 7.12706 7.10696 7.18733 7.24759C 7.2476 7.37818 7.33299 7.61424 7.44348 7.95577C 7.56403 8.29731 7.65443 8.56351 7.7147 8.75436C 7.77498 8.93518 7.87543 9.24658 8.01606 9.68856C 8.11651 9.99997 8.19185 10.236 8.24208 10.3967L 5.8463 10.3967C 5.28377 8.55848 4.90205 7.43342 4.70115 7.02157C 4.38975 6.38873 3.99798 6.01203 3.52586 5.89149C 3.34505 5.84127 3.13912 5.81615 2.90808 5.81615L 2.16976 5.81615C 2.25012 6.18782 2.2903 6.51931 2.2903 6.81062L 2.2903 10.3967L 0 10.3967L 0 0L 2.2903 0L 2.2903 2.93821C 2.2903 3.32997 2.25012 3.74183 2.16976 4.17377L 2.87795 4.17377C 3.59115 4.17377 4.10346 3.90255 4.41486 3.36011C 4.73631 2.81767 5.12807 1.74786 5.59015 0.150677C 5.61024 0.0803615 5.62531 0.0301357 5.63535 0L 7.97086 0C 7.40833 1.76795 7.05172 2.81767 6.90104 3.14916C 6.54946 3.93268 6.10747 4.45001 5.57508 4.70114C 5.32395 4.81164 5.02259 4.892 4.67101 4.94222Z"/>
<path id="path5_fill" d="M 9.89741 3.6464C 10.48 3.05373 11.4695 2.7574 12.8658 2.7574C 14.262 2.7574 15.2465 3.05373 15.8191 3.6464C 16.3916 4.23906 16.6779 5.25362 16.6779 6.69008C 16.6779 8.1165 16.3916 9.12603 15.8191 9.7187C 15.2465 10.3013 14.262 10.5926 12.8658 10.5926C 11.4695 10.5926 10.48 10.3013 9.89741 9.7187C 9.32484 9.12603 9.03855 8.1165 9.03855 6.69008C 9.03855 5.25362 9.32484 4.23906 9.89741 3.6464ZM 12.8658 4.42992C 12.2731 4.42992 11.8763 4.5806 11.6754 4.88195C 11.4745 5.18331 11.3741 5.78602 11.3741 6.69008C 11.3741 7.57406 11.4745 8.16672 11.6754 8.46808C 11.8763 8.76943 12.2731 8.92011 12.8658 8.92011C 13.4484 8.92011 13.8401 8.76943 14.0411 8.46808C 14.252 8.16672 14.3575 7.57406 14.3575 6.69008C 14.3575 5.79606 14.252 5.19837 14.0411 4.89702C 13.8401 4.58562 13.4484 4.42992 12.8658 4.42992Z"/>
<path id="path6_fill" d="M 25.2344 2.96835L 27.2535 2.96835C 27.7558 2.96835 28.0169 3.2245 28.037 3.7368L 28.2781 10.3967L 26.244 10.3967L 26.033 4.59566L 25.8221 4.59566L 24.6166 8.75436C 24.5061 9.21644 24.2299 9.44748 23.7879 9.44748L 22.5825 9.44748C 22.1204 9.44748 21.8341 9.21644 21.7236 8.75436L 20.5333 4.59566L 20.3223 4.59566L 20.1415 10.3967L 18.1224 10.3967L 18.3484 3.7368C 18.3484 3.2245 18.6096 2.96835 19.132 2.96835L 21.1209 2.96835C 21.583 2.96835 21.8592 3.19939 21.9496 3.66146L 22.8838 6.94623C 22.9341 7.13709 23.0044 7.50374 23.0948 8.04618L 23.2605 8.04618C 23.2706 7.99595 23.2957 7.83523 23.3359 7.56401C 23.3861 7.29279 23.4313 7.08687 23.4715 6.94623L 24.3906 3.66146C 24.481 3.19939 24.7623 2.96835 25.2344 2.96835Z"/>
<path id="path7_fill" d="M 37.1109 2.95328L 37.1109 10.3967L 34.9562 10.3967L 34.9562 4.55046L 32.2139 4.55046L 32.2139 10.3967L 30.0441 10.3967L 30.0441 2.95328L 37.1109 2.95328Z"/>
<path id="path8_fill" d="M 39.1861 4.6258L 38.9902 3.11902C 40.3263 2.87794 41.612 2.7574 42.8476 2.7574C 43.8521 2.7574 44.5904 2.96332 45.0626 3.37518C 45.5447 3.77698 45.7858 4.48015 45.7858 5.48466L 45.7858 10.3967L 44.0229 10.3967L 43.7969 9.26667C 43.0535 10.1406 42.1344 10.5776 41.0395 10.5776C 40.3263 10.5776 39.7436 10.3917 39.2916 10.0201C 38.8496 9.63834 38.6286 9.11097 38.6286 8.43794L 38.6286 7.68455C 38.6286 7.09189 38.8295 6.62981 39.2313 6.29832C 39.6331 5.96683 40.1906 5.80108 40.9038 5.80108L 43.5558 5.80108L 43.5558 5.46959C 43.5457 5.09792 43.4553 4.84679 43.2846 4.71621C 43.1238 4.57557 42.8074 4.50526 42.3353 4.50526C 41.5216 4.50526 40.4719 4.54544 39.1861 4.6258ZM 40.8285 7.8503L 40.8285 8.13659C 40.8285 8.64889 41.1148 8.90504 41.6874 8.90504C 42.28 8.90504 42.9028 8.66396 43.5558 8.18179L 43.5558 7.14211L 41.5518 7.14211C 41.0696 7.15216 40.8285 7.38822 40.8285 7.8503Z"/>
<path id="path9_fill" d="M 54.8158 2.96835L 54.8158 10.3967L 52.6309 10.3967L 52.6309 7.24759L 49.8133 7.24759L 49.8133 10.3967L 47.6134 10.3967L 47.6134 2.96835L 49.8133 2.96835L 49.8133 5.69561L 52.6309 5.69561L 52.6309 2.96835L 54.8158 2.96835Z"/>
<path id="path10_fill" d="M 63.9395 10.4118L 61.9506 10.4118L 61.9506 6.52434C 61.9506 6.23303 61.9757 5.83624 62.0259 5.33398L 61.9657 5.33398C 61.8552 5.69561 61.6693 6.06226 61.4082 6.43393L 58.6056 10.3967L 56.707 10.3967L 56.707 2.96835L 58.6809 2.96835L 58.6809 6.93117C 58.6809 7.21243 58.6558 7.57908 58.6056 8.03111L 58.6508 8.03111C 58.7813 7.69962 58.9672 7.36311 59.2083 7.02157L 62.041 2.96835L 63.9395 2.96835L 63.9395 10.4118Z"/>
<path id="path11_fill" d="M 67.3214 7.23252L 67.3214 7.15718C 66.2366 6.95628 65.6941 6.28828 65.6941 5.15317C 65.6941 4.27924 65.9151 3.67151 66.3571 3.32997C 66.7991 2.98844 67.6379 2.81767 68.8734 2.81767C 70.5409 2.81767 71.7363 2.85283 72.4596 2.92314L 72.4596 10.3967L 70.2898 10.3967L 70.2898 7.86537L 68.9186 7.86537C 68.4164 7.86537 68.1301 8.04618 68.0598 8.40781L 67.5625 10.3967L 65.2722 10.3967L 65.9051 8.09138C 66.0457 7.59917 66.5178 7.31288 67.3214 7.23252ZM 70.2898 6.40379L 70.2898 4.46005L 68.9186 4.46005C 68.4766 4.46005 68.1903 4.52033 68.0598 4.64087C 67.9292 4.75136 67.8639 4.99245 67.8639 5.36412C 67.8639 5.78602 67.9292 6.06728 68.0598 6.20791C 68.1903 6.3385 68.4766 6.40379 68.9186 6.40379L 70.2898 6.40379Z"/>
<path id="path12_fill" d="M 83.3573 7.66949L 79.7863 7.66949L 79.0329 10.3967L 76.6823 10.3967L 79.6808 0.60271C 79.721 0.421897 79.8164 0.276242 79.9671 0.165745C 80.1178 0.0552483 80.2885 0 80.4794 0L 82.6491 0C 83.0811 0 83.3473 0.200903 83.4477 0.60271L 86.4462 10.3967L 84.1107 10.3967L 83.3573 7.66949ZM 82.8601 5.89149L 81.9862 2.7122C 81.8656 2.20994 81.7953 1.88347 81.7752 1.73279L 81.3684 1.73279C 81.3483 1.83324 81.3131 1.99397 81.2629 2.21496C 81.2127 2.43595 81.1725 2.6017 81.1424 2.7122L 80.2684 5.89149L 82.8601 5.89149Z"/>
<path id="path13_fill" d="M 91.756 6.4942L 91.756 6.55447C 92.0573 6.59465 92.3034 6.63986 92.4943 6.69008C 92.6851 6.73026 92.871 6.82067 93.0518 6.9613C 93.2326 7.10193 93.3682 7.23252 93.4586 7.35306C 93.5591 7.4736 93.6846 7.70967 93.8353 8.06125C 93.986 8.40278 94.1065 8.71921 94.197 9.01052C 94.2974 9.30183 94.4481 9.7639 94.649 10.3967L 92.3285 10.3967C 91.8866 8.99043 91.5601 8.12654 91.3491 7.8051C 91.1382 7.48365 90.7665 7.32293 90.2341 7.32293L 89.5561 7.32293C 89.6063 7.57406 89.6314 7.78501 89.6314 7.95577L 89.6314 10.3967L 87.4164 10.3967L 87.4164 2.96835L 89.6314 2.96835L 89.6314 4.86688C 89.6314 5.16824 89.6013 5.46959 89.541 5.77095L 90.0985 5.77095C 90.6711 5.77095 91.0679 5.61023 91.2889 5.28878C 91.5099 4.95729 91.7961 4.18381 92.1477 2.96835L 94.4079 2.96835C 93.9458 4.36463 93.6344 5.20842 93.4737 5.49973C 93.2326 5.94172 92.876 6.228 92.4039 6.35859C 92.2331 6.40882 92.0171 6.45402 91.756 6.4942Z"/>
<path id="path14_fill" d="M 103.335 2.96835L 100.698 10.5022C 100.306 11.7277 99.6282 12.5866 98.6638 13.0788C 97.9205 13.5007 96.9059 13.6012 95.6201 13.3802L 95.801 11.9035C 96.7151 11.9337 97.363 11.8332 97.7447 11.6022C 98.1365 11.3711 98.4479 10.9693 98.6789 10.3967L 98.257 10.3967C 97.8753 10.3967 97.6292 10.2159 97.5187 9.85431L 95.1078 2.96835L 97.4735 2.96835L 98.8597 7.77496C 98.9803 8.23704 99.0606 8.60871 99.1008 8.88997L 99.2816 8.88997C 99.4423 8.3174 99.5428 7.94573 99.583 7.77496L 100.954 2.96835L 103.335 2.96835Z"/>
<path id="path15_fill" d="M 110.918 2.96835L 110.918 10.3967L 108.688 10.3967L 108.688 4.52033L 107.724 4.52033C 107.473 4.52033 107.287 4.57557 107.166 4.68607C 107.056 4.79657 106.98 4.98743 106.94 5.25865C 106.729 6.92614 106.548 8.0512 106.398 8.63382C 106.096 10.0602 105.087 10.673 103.369 10.4721L 103.143 8.81463C 103.555 8.74432 103.846 8.66396 104.017 8.57355C 104.198 8.4731 104.328 8.28726 104.409 8.01604C 104.6 7.45352 104.76 6.39877 104.891 4.85182C 105.011 3.59617 105.7 2.96835 106.955 2.96835L 110.918 2.96835Z"/>
<path id="path16_fill" d="M 112.995 4.6258L 112.799 3.11902C 114.135 2.87794 115.421 2.7574 116.656 2.7574C 117.661 2.7574 118.399 2.96332 118.871 3.37518C 119.353 3.77698 119.594 4.48015 119.594 5.48466L 119.594 10.3967L 117.831 10.3967L 117.605 9.26667C 116.862 10.1406 115.943 10.5776 114.848 10.5776C 114.135 10.5776 113.552 10.3917 113.1 10.0201C 112.658 9.63834 112.437 9.11097 112.437 8.43794L 112.437 7.68455C 112.437 7.09189 112.638 6.62981 113.04 6.29832C 113.442 5.96683 113.999 5.80108 114.712 5.80108L 117.364 5.80108L 117.364 5.46959C 117.354 5.09792 117.264 4.84679 117.093 4.71621C 116.932 4.57557 116.616 4.50526 116.144 4.50526C 115.33 4.50526 114.28 4.54544 112.995 4.6258ZM 114.637 7.8503L 114.637 8.13659C 114.637 8.64889 114.923 8.90504 115.496 8.90504C 116.089 8.90504 116.711 8.66396 117.364 8.18179L 117.364 7.14211L 115.36 7.14211C 114.878 7.15216 114.637 7.38822 114.637 7.8503Z"/>
</defs>
</svg>
