<svg width="100" height="100" viewBox="0 0 100 100" version="1.1" xmlns="http://www.w3.org/2000/svg" xmlns:xlink="http://www.w3.org/1999/xlink">
<title>step-3</title>
<desc>Created using Figma</desc>
<g id="Canvas" transform="translate(-1396 278)">
<g id="step-3">
<g id="search">
<g id="Group">
<g id="Group">
<g id="Vector">
<use xlink:href="#path0_fill" transform="translate(1444.8 -240.651)" fill="#3AA1C5"/>
</g>
</g>
</g>
<g id="Group">
<g id="Group">
<g id="Vector">
<use xlink:href="#path1_fill" transform="translate(1441.04 -236.977)" fill="#3AA1C5"/>
</g>
</g>
</g>
<g id="Group">
<g id="Group">
<g id="Vector">
<use xlink:href="#path2_fill" transform="translate(1424 -250)" fill="#082F4B"/>
</g>
</g>
</g>
<g id="Group">
<g id="Group">
<g id="Vector">
<use xlink:href="#path3_fill" transform="translate(1449.66 -237.581)" fill="#3AA1C5"/>
</g>
</g>
</g>
</g>
<g id="Ellipse 4.1">
<mask id="mask0_outline_ins">
<use xlink:href="#path4_fill" fill="white" transform="translate(1396 -278)"/>
</mask>
<g mask="url(#mask0_outline_ins)">
<use xlink:href="#path5_stroke_2x" transform="translate(1396 -278)" fill="#FFFFFF"/>
</g>
</g>
<g id="Group 7">
<g id="Ellipse 4">
<use xlink:href="#path6_fill" transform="translate(1469 -278)" fill="#D1D1D1"/>
</g>
</g>
<g id="3">
<use xlink:href="#path7_fill" transform="translate(1479 -272)" fill="#082F4B"/>
</g>
</g>
</g>
<defs>
<path id="path0_fill" d="M 12.1266 2.72508C 8.96942 -0.432055 4.00376 -0.901744 0.319289 1.60851C -0.0140814 1.83562 -0.100303 2.2901 0.126807 2.62347C 0.353918 2.95693 0.808314 3.04306 1.14177 2.81595C 4.24687 0.700596 8.43215 1.09698 11.0935 3.75823C 13.7548 6.41966 14.1511 10.6048 12.0358 13.7099C 11.8087 14.0433 11.8947 14.4978 12.2282 14.7249C 12.3541 14.8106 12.4973 14.8517 12.6389 14.8517C 12.8723 14.8517 13.1018 14.74 13.2432 14.5324C 15.7535 10.8479 15.2838 5.88221 12.1266 2.72508Z"/>
<path id="path1_fill" d="M 14.805 12.246C 14.574 11.9153 14.1187 11.8343 13.7878 12.0652C 10.6716 14.2401 6.45579 13.8649 3.76378 11.1728C 1.07177 8.48079 0.696475 4.26501 2.87142 1.14858C 3.1024 0.817844 3.02137 0.362481 2.69046 0.131504C 2.35955 -0.099298 1.90427 -0.0184379 1.6733 0.312471C -0.907621 4.01048 -0.462894 9.01235 2.73071 12.2058C 4.53467 14.0097 6.91502 14.9366 9.31198 14.9364C 11.1584 14.9363 13.015 14.3861 14.6241 13.263C 14.9548 13.0323 15.036 12.5769 14.805 12.246Z"/>
<path id="path2_fill" d="M 44.8796 16.5214C 44.7935 15.7644 44.1475 15.1937 43.3767 15.1937L 42.2795 15.1937C 41.8663 13.2726 41.1223 11.4727 40.0611 9.82812L 40.8341 9.05503C 41.3791 8.5101 41.4324 7.64956 40.958 7.05358C 40.5181 6.50074 40.04 5.96531 39.5371 5.46222C 39.0345 4.95966 38.4991 4.48162 37.9459 4.0412C 37.3498 3.56686 36.4893 3.62012 35.9444 4.16513L 35.1713 4.93822C 33.5267 3.87702 31.7269 3.13285 29.8058 2.71976L 29.8058 1.62262C 29.8058 0.851993 29.235 0.205906 28.478 0.119773C 27.0731 -0.0399244 25.6231 -0.0399244 24.2181 0.119773C 23.4612 0.205994 22.8904 0.851993 22.8904 1.62262L 22.8904 2.71976C 20.9693 3.13294 19.1695 3.87702 17.5249 4.93822L 16.7518 4.16513C 16.2068 3.62021 15.3463 3.56694 14.7503 4.04129C 14.197 4.48162 13.6616 4.95975 13.1591 5.46222C 12.6561 5.96531 12.1779 6.50074 11.7382 7.0534C 11.2638 7.64948 11.3169 8.51002 11.862 9.05494L 12.6351 9.82803C 11.5739 11.4726 10.8298 13.2725 10.4167 15.1936L 9.31927 15.1936C 8.54856 15.1936 7.90247 15.7644 7.81643 16.5214C 7.73653 17.2236 7.69602 17.9402 7.69602 18.6513C 7.69602 19.3623 7.73653 20.0789 7.81643 20.7813C 7.90256 21.5383 8.54856 22.109 9.31927 22.109L 10.4125 22.109C 10.8602 24.18 11.7047 26.1043 12.8592 27.8014L 0.897213 39.7632C -0.299071 40.9594 -0.299071 42.906 0.897213 44.1021C 1.49531 44.7002 2.28106 44.9993 3.06671 44.9993C 3.85237 44.9993 4.63803 44.7003 5.23621 44.1021L 17.1978 32.1404C 18.895 33.2947 20.8191 34.1392 22.8902 34.587L 22.8902 35.6802C 22.8902 36.4509 23.4611 37.097 24.218 37.1829C 24.9203 37.2628 25.6369 37.3033 26.348 37.3033C 27.059 37.3033 27.7757 37.2628 28.4779 37.1829C 29.2348 37.0969 29.8057 36.4508 29.8057 35.6802L 29.8057 34.5829C 31.7268 34.1698 33.5266 33.4257 35.1712 32.3645L 35.9442 33.1375C 36.4891 33.6824 37.3495 33.7358 37.9458 33.2614C 38.4989 32.8213 39.0342 32.3432 39.537 31.8405C 40.04 31.3375 40.5181 30.8021 40.9579 30.2494C 41.4323 29.6533 41.3792 28.7928 40.8341 28.2479L 40.0611 27.4748C 41.1223 25.8302 41.8664 24.0303 42.2795 22.1092L 43.3767 22.1092C 44.1475 22.1092 44.7935 21.5384 44.8796 20.7814C 44.9595 20.0791 45 19.3625 45 18.6515C 45 17.9403 44.9595 17.2237 44.8796 16.5214ZM 4.20288 43.0692C 3.57622 43.6957 2.55677 43.6957 1.93002 43.0692C 1.30344 42.4426 1.30344 41.4231 1.93002 40.7965L 13.7426 28.9839C 14.4241 29.8138 15.1856 30.5753 16.0155 31.2567L 4.20288 43.0692ZM 43.4278 20.6162C 43.4263 20.6289 43.4043 20.648 43.3767 20.648L 41.6783 20.648C 41.324 20.648 41.0207 20.9023 40.959 21.2513C 40.5806 23.3916 39.7602 25.3754 38.5209 27.1474C 38.3178 27.4377 38.3525 27.832 38.603 28.0826L 39.8011 29.2807C 39.8206 29.3002 39.8228 29.3293 39.8147 29.3394C 39.4089 29.8492 38.968 30.3431 38.5038 30.8073C 38.0399 31.2712 37.5461 31.7123 37.036 32.1181C 37.0259 32.1262 36.9967 32.124 36.9773 32.1044L 35.7794 30.9065C 35.5289 30.6559 35.1345 30.6213 34.8441 30.8244C 33.0721 32.0637 31.0883 32.884 28.948 33.2625C 28.5989 33.3243 28.3447 33.6274 28.3447 33.9819L 28.3447 35.6803C 28.3447 35.708 28.3257 35.7299 28.3129 35.7315C 27.0174 35.8789 25.6787 35.8789 24.3832 35.7315C 24.3704 35.7299 24.3513 35.708 24.3513 35.6803L 24.3513 33.9862C 24.3513 33.6318 24.0971 33.3286 23.7481 33.2669C 20.9443 32.7713 18.4114 31.4837 16.3856 29.6469L 18.1033 27.9293C 20.2979 29.8817 23.1865 31.0698 26.3481 31.0698C 33.1956 31.0698 38.7665 25.4989 38.7665 18.6513C 38.7665 11.8037 33.1955 6.23294 26.3479 6.23294C 19.5003 6.23294 13.9294 11.8038 13.9294 18.6514C 13.9294 21.8129 15.1176 24.7017 17.0699 26.8962L 15.3523 28.6138C 13.5154 26.588 12.2278 24.0552 11.7323 21.2514C 11.6707 20.9024 11.3674 20.6481 11.0129 20.6481L 9.31892 20.6481C 9.29132 20.6481 9.26917 20.6291 9.26777 20.6163C 9.19403 19.9686 9.15676 19.3075 9.15676 18.6515C 9.15676 17.9955 9.19403 17.3344 9.26777 16.6866C 9.26926 16.6739 9.29132 16.6548 9.31892 16.6548L 11.0172 16.6548C 11.3716 16.6548 11.6748 16.4005 11.7365 16.0515C 12.115 13.9112 12.9354 11.9274 14.1746 10.1554C 14.3777 9.86512 14.3431 9.47084 14.0925 9.22018L 12.8945 8.02213C 12.875 8.00262 12.8728 7.97353 12.8809 7.96334C 13.2866 7.45357 13.7274 6.95962 14.1917 6.49556C 14.6553 6.03184 15.1493 5.59081 15.6595 5.18475C 15.6695 5.17667 15.6986 5.17878 15.7182 5.19837L 16.9162 6.39642C 17.1667 6.64699 17.561 6.68162 17.8515 6.47851C 19.6234 5.23916 21.6073 4.41887 23.7476 4.04041C 24.0966 3.97862 24.3509 3.67531 24.3509 3.32102L 24.3509 1.62262C 24.3509 1.59493 24.37 1.57287 24.3827 1.57138C 25.6784 1.42399 27.0169 1.42399 28.3124 1.57138C 28.3252 1.57287 28.3444 1.59493 28.3444 1.62262L 28.3444 3.32094C 28.3444 3.67531 28.5987 3.97854 28.9477 4.04032C 31.088 4.41878 33.0718 5.23916 34.8439 6.47842C 35.1341 6.68153 35.5284 6.6469 35.7791 6.39633L 36.9771 5.19829C 36.9967 5.1786 37.0258 5.17658 37.0359 5.18458C 37.5461 5.59072 38.04 6.03176 38.5036 6.49547C 38.9679 6.95971 39.4087 7.45348 39.8144 7.96342C 39.8225 7.97353 39.8202 8.00253 39.8008 8.02213L 38.6028 9.22018C 38.3522 9.47066 38.3176 9.86494 38.5207 10.1554C 39.76 11.9274 40.5803 13.9113 40.9588 16.0515C 41.0204 16.4005 41.3237 16.6548 41.6781 16.6548L 43.3765 16.6548C 43.4041 16.6548 43.4262 16.6738 43.4276 16.6866C 43.5014 17.3342 43.5386 17.9954 43.5386 18.6515C 43.539 19.3074 43.5015 19.9685 43.4278 20.6162ZM 15.3904 18.6514C 15.3904 12.6094 20.3059 7.69395 26.3479 7.69395C 32.3899 7.69395 37.3053 12.6094 37.3053 18.6514C 37.3053 24.6934 32.3899 29.6088 26.3479 29.6088C 20.3059 29.6088 15.3904 24.6934 15.3904 18.6514Z"/>
<path id="path3_fill" d="M 0.730461 -1.18018e-07C 0.327042 -1.18018e-07 -3.86239e-07 0.326955 -3.86239e-07 0.730462C -3.86239e-07 1.13388 0.327042 1.46092 0.730461 1.46092C 3.30918 1.46092 5.40714 3.60124 5.40714 6.23208C 5.40714 6.6355 5.73418 6.96254 6.1376 6.96254C 6.54102 6.96254 6.86806 6.6355 6.86806 6.23208C 6.86806 2.79572 4.11479 -1.18018e-07 0.730461 -1.18018e-07Z"/>
<path id="path4_fill" d="M 100 50C 100 77.6142 77.6142 100 50 100C 22.3858 100 0 77.6142 0 50C 0 22.3858 22.3858 0 50 0C 77.6142 0 100 22.3858 100 50Z"/>
<path id="path5_stroke_2x" d="M 96 50C 96 75.4051 75.4051 96 50 96L 50 104C 79.8234 104 104 79.8234 104 50L 96 50ZM 50 96C 24.5949 96 4 75.4051 4 50L -4 50C -4 79.8234 20.1766 104 50 104L 50 96ZM 4 50C 4 24.5949 24.5949 4 50 4L 50 -4C 20.1766 -4 -4 20.1766 -4 50L 4 50ZM 50 4C 75.4051 4 96 24.5949 96 50L 104 50C 104 20.1766 79.8234 -4 50 -4L 50 4Z"/>
<path id="path6_fill" d="M 27 13.5C 27 20.9558 20.9558 27 13.5 27C 6.04416 27 0 20.9558 0 13.5C 0 6.04416 6.04416 0 13.5 0C 20.9558 0 27 6.04416 27 13.5Z"/>
<path id="path7_fill" d="M 2.28516 6.20703L 3.09961 6.20703C 3.61133 6.19922 4.01367 6.06445 4.30664 5.80273C 4.59961 5.54102 4.74609 5.1875 4.74609 4.74219C 4.74609 3.74219 4.24805 3.24219 3.25195 3.24219C 2.7832 3.24219 2.4082 3.37695 2.12695 3.64648C 1.84961 3.91211 1.71094 4.26562 1.71094 4.70703L 0.626953 4.70703C 0.626953 4.03125 0.873047 3.4707 1.36523 3.02539C 1.86133 2.57617 2.49023 2.35156 3.25195 2.35156C 4.05664 2.35156 4.6875 2.56445 5.14453 2.99023C 5.60156 3.41602 5.83008 4.00781 5.83008 4.76562C 5.83008 5.13672 5.70898 5.49609 5.4668 5.84375C 5.22852 6.19141 4.90234 6.45117 4.48828 6.62305C 4.95703 6.77148 5.31836 7.01758 5.57227 7.36133C 5.83008 7.70508 5.95898 8.125 5.95898 8.62109C 5.95898 9.38672 5.70898 9.99414 5.20898 10.4434C 4.70898 10.8926 4.05859 11.1172 3.25781 11.1172C 2.45703 11.1172 1.80469 10.9004 1.30078 10.4668C 0.800781 10.0332 0.550781 9.46094 0.550781 8.75L 1.64062 8.75C 1.64062 9.19922 1.78711 9.55859 2.08008 9.82812C 2.37305 10.0977 2.76562 10.2324 3.25781 10.2324C 3.78125 10.2324 4.18164 10.0957 4.45898 9.82227C 4.73633 9.54883 4.875 9.15625 4.875 8.64453C 4.875 8.14844 4.72266 7.76758 4.41797 7.50195C 4.11328 7.23633 3.67383 7.09961 3.09961 7.0918L 2.28516 7.0918L 2.28516 6.20703Z"/>
</defs>
</svg>
