<svg width="100" height="100" viewBox="0 0 100 100" version="1.1" xmlns="http://www.w3.org/2000/svg" xmlns:xlink="http://www.w3.org/1999/xlink">
<title>step-5</title>
<desc>Created using Figma</desc>
<g id="Canvas" transform="translate(-1682 278)">
<g id="step-5">
<g id="settings">
<g id="Group">
<g id="Group">
<g id="Vector">
<use xlink:href="#path0_fill" transform="translate(1712 -241.881)" fill="#082F4B"/>
</g>
<g id="Vector">
<use xlink:href="#path1_fill" transform="translate(1721.84 -232.037)" fill="#082F4B"/>
</g>
<g id="Vector">
<use xlink:href="#path2_fill" transform="translate(1730.38 -252)" fill="#3AA1C5"/>
</g>
<g id="Vector">
<use xlink:href="#path3_fill" transform="translate(1738.29 -244.103)" fill="#3AA1C5"/>
</g>
</g>
</g>
</g>
<g id="Ellipse 4.3">
<mask id="mask0_outline_ins">
<use xlink:href="#path4_fill" fill="white" transform="translate(1682 -278)"/>
</mask>
<g mask="url(#mask0_outline_ins)">
<use xlink:href="#path5_stroke_2x" transform="translate(1682 -278)" fill="#FFFFFF"/>
</g>
</g>
<g id="Group 7.2">
<g id="Ellipse 4">
<use xlink:href="#path6_fill" transform="translate(1755 -278)" fill="#D1D1D1"/>
</g>
</g>
<g id="5">
<use xlink:href="#path7_fill" transform="translate(1765 -272)" fill="#082F4B"/>
</g>
</g>
</g>
<defs>
<path id="path0_fill" d="M 22.9706 34.2883L 25.2204 33.3609C 26.4233 32.865 26.9927 31.4784 26.4968 30.2847L 25.9183 28.8889C 27.0478 28.0533 28.0303 27.0615 28.8751 25.932L 30.2709 26.5106C 30.8494 26.7493 31.4922 26.7493 32.0707 26.5106C 32.6492 26.2718 33.1084 25.8127 33.3471 25.2342L 34.2838 22.9844C 34.7796 21.7815 34.2103 20.404 33.0074 19.9082L 30.9412 19.0542C 30.4729 18.8613 29.9495 19.0817 29.7567 19.55C 29.5638 20.0184 29.7842 20.5418 30.2525 20.7346L 32.3186 21.5886C 32.5941 21.6988 32.7227 22.0202 32.6125 22.2957L 31.6759 24.5455C 31.6208 24.674 31.5197 24.7842 31.382 24.8393C 31.2534 24.8944 31.1065 24.8944 30.9688 24.8393L 28.9027 23.9853C 28.4986 23.82 28.0395 23.9578 27.8007 24.3159C 26.8733 25.7117 25.6979 26.8871 24.3021 27.8145C 23.944 28.0533 23.7971 28.5216 23.9624 28.9164L 24.8163 30.9826C 24.9265 31.258 24.798 31.5702 24.5225 31.6896L 22.2727 32.6171C 22.1442 32.6722 21.9972 32.6722 21.8595 32.6171C 21.7309 32.562 21.6208 32.461 21.5657 32.3232L 20.7117 30.2571C 20.5464 29.8531 20.124 29.6235 19.6924 29.7153C 18.0579 30.0459 16.3866 30.0367 14.7521 29.7153C 14.3297 29.6327 13.8981 29.8623 13.7328 30.2571L 12.8788 32.3232C 12.7686 32.5987 12.4472 32.7273 12.1717 32.6171L 9.92195 31.6804C 9.79339 31.6253 9.6832 31.5243 9.6281 31.3866C 9.573 31.258 9.573 31.1111 9.6281 30.9734L 10.4821 28.9073C 10.6474 28.5032 10.5096 28.0441 10.1515 27.8053C 8.75574 26.8779 7.58035 25.7025 6.65289 24.3067C 6.41414 23.9486 5.94582 23.8017 5.55097 23.9669L 3.48485 24.8209C 3.34711 24.876 3.20937 24.876 3.07163 24.8209C 2.94307 24.7658 2.83287 24.6648 2.77778 24.5271L 1.85032 22.2773C 1.79523 22.1488 1.79523 22.0018 1.85032 21.8641C 1.90542 21.7355 2.00643 21.6253 2.14417 21.5703L 4.21029 20.7163C 4.61433 20.551 4.83471 20.1286 4.75207 19.697C 4.42149 18.0624 4.43067 16.3912 4.75207 14.7567C 4.83471 14.3343 4.60514 13.9027 4.21029 13.7374L 2.14417 12.8834C 1.86869 12.7732 1.74013 12.4518 1.85032 12.1763L 2.78696 9.92654C 2.89715 9.65106 3.21855 9.5225 3.49403 9.63269L 5.56015 10.4867C 5.96419 10.652 6.42333 10.5142 6.66208 10.1561C 7.58953 8.76033 8.76492 7.58494 10.1607 6.65748C 10.5188 6.41873 10.6657 5.95041 10.5005 5.55556L 9.64647 3.48944C 9.59137 3.36088 9.59137 3.21396 9.64647 3.07622C 9.70156 2.94766 9.80257 2.83747 9.94031 2.78237L 12.1901 1.85491C 12.3186 1.79982 12.4656 1.79982 12.6033 1.85491C 12.7319 1.91001 12.8421 2.01102 12.8972 2.14876L 13.7511 4.21488C 13.944 4.6832 14.4766 4.90358 14.9357 4.71074C 15.404 4.51791 15.6244 3.98531 15.4316 3.52617L 14.5776 1.46006C 14.3388 0.881543 13.8797 0.422406 13.3012 0.183654C 13.0073 0.0642789 12.7043 -2.80235e-07 12.4013 -2.80235e-07C 12.0983 -2.80235e-07 11.786 0.0642789 11.5014 0.183654L 9.25161 1.11111C 8.6731 1.34986 8.21396 1.809 7.97521 2.38751C 7.73646 2.96602 7.73646 3.60882 7.97521 4.18733L 8.55372 5.5831C 7.42424 6.41873 6.44169 7.41047 5.59688 8.53995L 4.2011 7.96143C 2.99816 7.46556 1.62075 8.0349 1.12489 9.23783L 0.179063 11.4876C -0.316804 12.6905 0.252525 14.068 1.45546 14.5638L 2.85124 15.1423C 2.64922 16.5289 2.64922 17.9339 2.85124 19.3205L 1.45546 19.899C 0.876951 20.1377 0.417815 20.5969 0.179063 21.1754C -0.0596878 21.7539 -0.0596878 22.3967 0.179063 22.9752L 1.10652 25.225C 1.34527 25.8035 1.80441 26.2626 2.38292 26.5014C 2.96143 26.7401 3.60422 26.7401 4.18274 26.5014L 5.57851 25.9229C 6.41414 27.0523 7.40588 28.0349 8.53535 28.8797L 7.95684 30.2755C 7.71809 30.854 7.71809 31.4968 7.95684 32.0753C 8.19559 32.6538 8.65473 33.1129 9.23324 33.3517L 11.483 34.2883C 12.686 34.7842 14.0634 34.2149 14.5592 33.0119L 15.1377 31.6162C 16.5243 31.8182 17.9293 31.8182 19.3159 31.6162L 19.8944 33.0119C 20.1332 33.5905 20.5923 34.0496 21.1708 34.2883C 21.7493 34.5271 22.3921 34.5271 22.9706 34.2883Z"/>
<path id="path1_fill" d="M 0.00017202 7.4472C 0.0277202 11.506 3.34269 14.7842 7.39227 14.7842C 7.41064 14.7842 7.42901 14.7842 7.44737 14.7842C 9.42166 14.7658 11.2766 13.9853 12.6632 12.5803C 14.0498 11.1754 14.8027 9.31129 14.7936 7.33701C 14.7936 6.84114 14.3803 6.4371 13.8845 6.4371L 13.8753 6.4371C 13.3702 6.4371 12.9662 6.85032 12.9754 7.35537C 12.9846 8.84298 12.4152 10.2479 11.3684 11.3131C 10.3216 12.3783 8.92579 12.966 7.43819 12.9752C 7.42901 12.9752 7.41064 12.9752 7.40146 12.9752C 4.34361 12.9752 1.8459 10.4959 1.82754 7.43802C 1.80917 4.3618 4.28851 1.84573 7.36473 1.81818C 7.86978 1.81818 8.27382 1.40496 8.26463 0.899908C 8.26463 0.40404 7.85141 -5.6047e-07 7.35554 -5.6047e-07C 7.35554 -5.6047e-07 7.35554 -5.6047e-07 7.34636 -5.6047e-07C 3.26004 0.0275477 -0.0273762 3.37006 0.00017202 7.4472Z"/>
<path id="path2_fill" d="M 14.1965 0L 12.4242 0C 11.3407 0 10.4591 0.881543 10.4591 1.96511L 10.4591 2.8742C 9.57759 3.11295 8.73278 3.46189 7.94307 3.92103L 7.30028 3.27824C 6.93297 2.91093 6.4371 2.69972 5.91368 2.69972C 5.39027 2.69972 4.8944 2.90174 4.52709 3.27824L 3.27824 4.52709C 2.91093 4.8944 2.69972 5.39027 2.69972 5.91368C 2.69972 6.4371 2.90175 6.93297 3.27824 7.30028L 3.92103 7.94307C 3.46189 8.73278 3.11295 9.57759 2.8742 10.4591L 1.96511 10.4591C 0.881543 10.4591 -5.6047e-07 11.3407 -5.6047e-07 12.4242L -5.6047e-07 14.1965C -5.6047e-07 15.2801 0.881543 16.1616 1.96511 16.1616L 2.8742 16.1616C 3.11295 17.0432 3.46189 17.888 3.92103 18.6777L 3.27824 19.3205C 2.91093 19.6878 2.69972 20.1837 2.69972 20.7071C 2.69972 21.2305 2.90175 21.7264 3.27824 22.0937L 4.52709 23.3425C 4.8944 23.7098 5.39027 23.921 5.91368 23.921C 6.4371 23.921 6.93297 23.719 7.30028 23.3425L 7.94307 22.6997C 8.73278 23.1589 9.57759 23.5078 10.4591 23.7466L 10.4591 24.6556C 10.4591 25.7392 11.3407 26.6208 12.4242 26.6208L 14.1965 26.6208C 15.2801 26.6208 16.1616 25.7392 16.1616 24.6556L 16.1616 23.7466C 17.0432 23.5078 17.888 23.1589 18.6777 22.6997L 19.3205 23.3425C 19.6878 23.7098 20.1837 23.921 20.7071 23.921C 21.2305 23.921 21.7264 23.719 22.0937 23.3425L 23.3425 22.0937C 24.1047 21.3315 24.1047 20.0826 23.3425 19.3205L 22.6997 18.6777C 23.1589 17.888 23.5078 17.0432 23.7466 16.1616L 24.6556 16.1616C 25.7392 16.1616 26.6208 15.2801 26.6208 14.1965L 26.6208 12.4242C 26.6208 11.3407 25.7392 10.4591 24.6556 10.4591L 23.7466 10.4591C 23.5078 9.57759 23.1589 8.73278 22.6997 7.94307L 23.3425 7.30028C 24.1047 6.53811 24.1047 5.28926 23.3425 4.52709L 22.0937 3.27824C 21.7264 2.91093 21.2305 2.69972 20.7071 2.69972C 20.1837 2.69972 19.6878 2.90174 19.3205 3.27824L 18.6777 3.92103C 17.888 3.46189 17.0432 3.11295 16.1616 2.8742L 16.1616 1.96511C 16.1524 0.881543 15.2709 0 14.1965 0ZM 18.3012 5.82186C 18.4573 5.92287 18.6318 5.97796 18.8062 5.97796C 19.045 5.97796 19.2746 5.88613 19.449 5.71166L 20.5969 4.56382C 20.6336 4.52709 20.6703 4.51791 20.6979 4.51791C 20.7254 4.51791 20.7622 4.52709 20.7989 4.56382L 22.0478 5.81267C 22.1028 5.86777 22.1028 5.9596 22.0478 6.01469L 20.8999 7.16253C 20.5969 7.46557 20.5418 7.95225 20.7897 8.31038C 21.4509 9.29293 21.9008 10.3857 22.1304 11.5427C 22.213 11.9651 22.5895 12.2773 23.0211 12.2773L 24.6465 12.2773C 24.7291 12.2773 24.7934 12.3416 24.7934 12.4242L 24.7934 14.1965C 24.7934 14.2792 24.7291 14.3434 24.6465 14.3434L 23.0211 14.3434C 22.5895 14.3434 22.213 14.6465 22.1304 15.0781C 21.9008 16.2351 21.4509 17.3278 20.7897 18.3104C 20.551 18.6685 20.5969 19.1552 20.8999 19.4582L 22.0478 20.6061C 22.1028 20.6612 22.1028 20.753 22.0478 20.8081L 20.7989 22.0569C 20.7622 22.0937 20.7254 22.1028 20.6979 22.1028C 20.6703 22.1028 20.6336 22.0937 20.5969 22.0569L 19.449 20.8907C 19.146 20.5877 18.6593 20.5326 18.3012 20.7805C 17.3186 21.4417 16.2259 21.8916 15.0689 22.1212C 14.6465 22.2039 14.3343 22.5804 14.3343 23.0119L 14.3343 24.6373C 14.3343 24.7199 14.27 24.7842 14.1873 24.7842L 12.4151 24.7842C 12.3324 24.7842 12.2681 24.7199 12.2681 24.6373L 12.2681 23.0119C 12.2681 22.5804 11.9651 22.2039 11.5335 22.1212C 10.3765 21.8916 9.28375 21.4417 8.30119 20.7805C 7.94307 20.5418 7.45638 20.5877 7.15335 20.8907L 6.00551 22.0386C 5.96878 22.0753 5.93205 22.0845 5.9045 22.0845C 5.87695 22.0845 5.84022 22.0753 5.80349 22.0386L 4.55464 20.7897C 4.51791 20.753 4.50872 20.7163 4.50872 20.6887C 4.50872 20.6612 4.51791 20.6244 4.55464 20.5877L 5.70248 19.4399C 6.00551 19.1368 6.06061 18.6501 5.81267 18.292C 5.15152 17.3095 4.70156 16.2167 4.47199 15.0597C 4.38935 14.6373 4.01286 14.3251 3.58127 14.3251L 1.95592 14.3251C 1.87328 14.3251 1.809 14.2608 1.809 14.1781L 1.809 12.4059C 1.809 12.3232 1.87328 12.259 1.95592 12.259L 3.58127 12.259C 4.01286 12.259 4.38935 11.9559 4.47199 11.5243C 4.70156 10.3673 5.15152 9.27456 5.81267 8.29201C 6.05142 7.93389 6.00551 7.4472 5.70248 7.14417L 4.55464 5.99633C 4.51791 5.9596 4.50872 5.92287 4.50872 5.89532C 4.50872 5.86777 4.51791 5.83104 4.55464 5.79431L 5.80349 4.54545C 5.84022 4.50872 5.87695 4.49954 5.9045 4.49954C 5.93205 4.49954 5.96878 4.50872 6.00551 4.54545L 7.15335 5.6933C 7.45638 5.99633 7.94307 6.05142 8.30119 5.80349C 9.28375 5.14233 10.3765 4.69238 11.5335 4.46281C 11.9559 4.38017 12.2681 4.00367 12.2681 3.57208L 12.2681 1.96511C 12.2681 1.88246 12.3324 1.81818 12.4151 1.81818L 14.1873 1.81818C 14.27 1.81818 14.3343 1.88246 14.3343 1.96511L 14.3343 3.59045C 14.3343 4.02204 14.6373 4.39853 15.0689 4.48118C 16.2259 4.71074 17.3186 5.1607 18.3012 5.82186Z"/>
<path id="path3_fill" d="M 5.6047e-07 5.39945C 5.6047e-07 8.37466 2.42424 10.7989 5.39945 10.7989C 8.37466 10.7989 10.7989 8.37466 10.7989 5.39945C 10.7989 2.42424 8.37466 -1.30495e-15 5.39945 -1.30495e-15C 2.42424 -1.30495e-15 5.6047e-07 2.42424 5.6047e-07 5.39945ZM 8.97153 5.39945C 8.97153 7.37374 7.36455 8.98072 5.39027 8.98072C 3.41598 8.98072 1.809 7.37374 1.809 5.39945C 1.809 3.42516 3.41598 1.81818 5.39027 1.81818C 7.36455 1.81818 8.97153 3.43434 8.97153 5.39945Z"/>
<path id="path4_fill" d="M 100 50C 100 77.6142 77.6142 100 50 100C 22.3858 100 0 77.6142 0 50C 0 22.3858 22.3858 0 50 0C 77.6142 0 100 22.3858 100 50Z"/>
<path id="path5_stroke_2x" d="M 96 50C 96 75.4051 75.4051 96 50 96L 50 104C 79.8234 104 104 79.8234 104 50L 96 50ZM 50 96C 24.5949 96 4 75.4051 4 50L -4 50C -4 79.8234 20.1766 104 50 104L 50 96ZM 4 50C 4 24.5949 24.5949 4 50 4L 50 -4C 20.1766 -4 -4 20.1766 -4 50L 4 50ZM 50 4C 75.4051 4 96 24.5949 96 50L 104 50C 104 20.1766 79.8234 -4 50 -4L 50 4Z"/>
<path id="path6_fill" d="M 27 13.5C 27 20.9558 20.9558 27 13.5 27C 6.04416 27 0 20.9558 0 13.5C 0 6.04416 6.04416 0 13.5 0C 20.9558 0 27 6.04416 27 13.5Z"/>
<path id="path7_fill" d="M 1.20703 6.72266L 1.64062 2.46875L 6.01172 2.46875L 6.01172 3.4707L 2.56055 3.4707L 2.30273 5.79688C 2.7207 5.55078 3.19531 5.42773 3.72656 5.42773C 4.50391 5.42773 5.12109 5.68555 5.57812 6.20117C 6.03516 6.71289 6.26367 7.40625 6.26367 8.28125C 6.26367 9.16016 6.02539 9.85352 5.54883 10.3613C 5.07617 10.8652 4.41406 11.1172 3.5625 11.1172C 2.80859 11.1172 2.19336 10.9082 1.7168 10.4902C 1.24023 10.0723 0.96875 9.49414 0.902344 8.75586L 1.92773 8.75586C 1.99414 9.24414 2.16797 9.61328 2.44922 9.86328C 2.73047 10.1094 3.10156 10.2324 3.5625 10.2324C 4.06641 10.2324 4.46094 10.0605 4.74609 9.7168C 5.03516 9.37305 5.17969 8.89844 5.17969 8.29297C 5.17969 7.72266 5.02344 7.26562 4.71094 6.92188C 4.40234 6.57422 3.99023 6.40039 3.47461 6.40039C 3.00195 6.40039 2.63086 6.50391 2.36133 6.71094L 2.07422 6.94531L 1.20703 6.72266Z"/>
</defs>
</svg>
