<svg width="100" height="100" viewBox="0 0 100 100" version="1.1" xmlns="http://www.w3.org/2000/svg" xmlns:xlink="http://www.w3.org/1999/xlink">
<title>step-2</title>
<desc>Created using Figma</desc>
<g id="Canvas" transform="translate(-1253 278)">
<g id="step-2">
<g id="shipped">
<g id="Group">
<g id="Group">
<g id="Vector">
<use xlink:href="#path0_fill" transform="translate(1273 -246)" fill="#082F4B"/>
</g>
</g>
</g>
<g id="Group">
<g id="Group">
<g id="Vector">
<use xlink:href="#path1_fill" transform="translate(1288.03 -216.937)" fill="#082F4B"/>
</g>
</g>
</g>
<g id="Group">
<g id="Group">
<g id="Vector">
<use xlink:href="#path2_fill" transform="translate(1321.1 -216.937)" fill="#082F4B"/>
</g>
</g>
</g>
<g id="Group">
<g id="Group">
<g id="Vector">
<use xlink:href="#path3_fill" transform="translate(1297.05 -220.946)" fill="#082F4B"/>
</g>
</g>
</g>
<g id="Group">
<g id="Group">
<g id="Vector">
<use xlink:href="#path4_fill" transform="translate(1275 -224.954)" fill="#082F4B"/>
</g>
</g>
</g>
<g id="Group">
<g id="Group">
<g id="Vector">
<use xlink:href="#path5_fill" transform="translate(1290.04 -237.981)" fill="#3AA1C5"/>
</g>
</g>
</g>
</g>
<g id="Ellipse 4">
<mask id="mask0_outline_ins">
<use xlink:href="#path6_fill" fill="white" transform="translate(1253 -278)"/>
</mask>
<g mask="url(#mask0_outline_ins)">
<use xlink:href="#path7_stroke_2x" transform="translate(1253 -278)" fill="#FFFFFF"/>
</g>
</g>
<g id="Group 7">
<g id="Ellipse 4">
<use xlink:href="#path8_fill" transform="translate(1326 -278)" fill="#D1D1D1"/>
</g>
</g>
<g id="2">
<use xlink:href="#path9_fill" transform="translate(1336 -272)" fill="#082F4B"/>
</g>
</g>
</g>
<defs>
<path id="path0_fill" d="M 55.7999 16.09L 54.2461 9.87494C 54.6709 9.78471 54.9896 9.40783 54.9896 8.95631L 54.9896 7.95424C 54.9896 5.77853 53.2195 4.00852 51.0439 4.00852L 43.9667 4.00852L 43.9667 1.94157C 43.9667 0.870939 43.0958 -4.14849e-07 42.0252 -4.14849e-07L 5.94986 -4.14849e-07C 4.87923 -4.14849e-07 4.00829 0.870939 4.00829 1.94157L 4.00829 18.9771C 4.00829 19.4959 4.42888 19.9166 4.94778 19.9166C 5.46657 19.9166 5.88728 19.4961 5.88728 18.9771L 5.88728 1.94157C 5.88728 1.907 5.91529 1.87899 5.94986 1.87899L 42.025 1.87899C 42.0596 1.87899 42.0876 1.907 42.0876 1.94157L 42.0876 18.9774C 42.0876 19.4962 42.5082 19.9169 43.0271 19.9169C 43.5459 19.9169 43.9666 19.4963 43.9666 18.9774L 43.9666 17.9124L 55.0489 17.9124C 55.0499 17.9124 55.0506 17.9126 55.0514 17.9126C 55.0523 17.9126 55.0532 17.9125 55.054 17.9125C 56.4177 17.9134 57.5756 18.8085 57.9734 20.0419L 55.0521 20.0419C 54.5333 20.0419 54.1126 20.4625 54.1126 20.9814L 54.1126 22.9856C 54.1126 24.6087 55.4331 25.9292 57.0562 25.9292L 58.121 25.9292L 58.121 30.0628L 55.6645 30.0628C 54.8576 27.7327 52.6426 26.0543 50.0416 26.0543C 47.4406 26.0543 45.2256 27.7327 44.4187 30.0628L 43.9664 30.0628L 43.9664 22.9854C 43.9664 22.4666 43.5458 22.0459 43.0269 22.0459C 42.5081 22.0459 42.0874 22.4665 42.0874 22.9854L 42.0874 30.0625L 22.5958 30.0625C 21.7888 27.7325 19.5739 26.0541 16.9729 26.0541C 14.3719 26.0541 12.1568 27.7325 11.35 30.0625L 5.94986 30.0625C 5.91529 30.0625 5.88728 30.0345 5.88728 29.9999L 5.88728 27.9331L 9.95826 27.9331C 10.4771 27.9331 10.8978 27.5125 10.8978 26.9936C 10.8978 26.4747 10.4772 26.0541 9.95826 26.0541L 0.939494 26.0541C 0.420704 26.0541 0 26.4747 0 26.9936C 0 27.5125 0.420587 27.9331 0.939494 27.9331L 4.00841 27.9331L 4.00841 29.9999C 4.00841 31.0706 4.87935 31.9415 5.94997 31.9415L 11.0247 31.9415C 11.0244 31.9624 11.023 31.9831 11.023 32.0041C 11.023 35.2849 13.6922 37.9539 16.9729 37.9539C 20.2536 37.9539 22.9227 35.2849 22.9227 32.0041C 22.9227 31.983 22.9213 31.9624 22.9211 31.9415L 44.0934 31.9415C 44.0932 31.9624 44.0918 31.9831 44.0918 32.0041C 44.0918 35.2849 46.761 37.9539 50.0416 37.9539C 53.3223 37.9539 55.9915 35.2849 55.9915 32.0041C 55.9915 31.983 55.9901 31.9624 55.9898 31.9415L 59.0605 31.9415C 59.5793 31.9415 60 31.5209 60 31.002L 60 20.9812C 60.0001 18.5071 58.1747 16.4515 55.7999 16.09ZM 43.9667 5.88739L 51.0439 5.88739C 52.1836 5.88739 53.1108 6.81458 53.1108 7.95424L 53.1108 8.01681L 43.9667 8.01681L 43.9667 5.88739ZM 43.9667 16.0335L 43.9667 9.89568L 52.3146 9.89568L 53.849 16.0335L 43.9667 16.0335ZM 16.9729 36.0753C 14.7282 36.0753 12.9019 34.2492 12.9019 32.0043C 12.9019 29.7595 14.7282 27.9333 16.9729 27.9333C 19.2176 27.9333 21.0439 29.7595 21.0439 32.0043C 21.0439 34.2492 19.2176 36.0753 16.9729 36.0753ZM 50.0419 36.0753C 47.7971 36.0753 45.9709 34.2492 45.9709 32.0043C 45.9709 29.7595 47.7971 27.9333 50.0419 27.9333C 52.2866 27.9333 54.1128 29.7595 54.1128 32.0043C 54.1128 34.2492 52.2866 36.0753 50.0419 36.0753ZM 58.1212 24.0502L 57.0565 24.0502C 56.4694 24.0502 55.9917 23.5725 55.9917 22.9854L 55.9917 21.9207L 58.1211 21.9207L 58.1211 24.0502L 58.1212 24.0502Z"/>
<path id="path1_fill" d="M 1.94157 -1.77384e-06C 0.87094 -1.77384e-06 -2.00272e-07 0.87094 -2.00272e-07 1.94157C -2.00272e-07 3.01219 0.87094 3.88313 1.94157 3.88313C 3.01219 3.88313 3.88313 3.01219 3.88313 1.94157C 3.88313 0.87094 3.01219 -1.77384e-06 1.94157 -1.77384e-06Z"/>
<path id="path2_fill" d="M 1.94157 -1.77384e-06C 0.87094 -1.77384e-06 -1.57357e-06 0.87094 -1.57357e-06 1.94157C -1.57357e-06 3.01219 0.87094 3.88313 1.94157 3.88313C 3.01219 3.88313 3.88313 3.01219 3.88313 1.94157C 3.88313 0.87094 3.01219 -1.77384e-06 1.94157 -1.77384e-06Z"/>
<path id="path3_fill" d="M 14.9687 6.29426e-07L 0.939494 6.29426e-07C 0.420704 6.29426e-07 5.86511e-07 0.420587 5.86511e-07 0.939495C 5.86511e-07 1.4584 0.420587 1.87899 0.939494 1.87899L 14.9687 1.87899C 15.4875 1.87899 15.9082 1.4584 15.9082 0.939495C 15.9082 0.420587 15.4876 6.29426e-07 14.9687 6.29426e-07Z"/>
<path id="path4_fill" d="M 12.9646 -1.37329e-06L 0.939494 -1.37329e-06C 0.420704 -1.37329e-06 -8.40427e-08 0.420585 -8.40427e-08 0.939492C -8.40427e-08 1.4584 0.420587 1.87899 0.939494 1.87899L 12.9646 1.87899C 13.4834 1.87899 13.9041 1.4584 13.9041 0.939492C 13.9041 0.420585 13.4834 -1.37329e-06 12.9646 -1.37329e-06Z"/>
<path id="path5_fill" d="M 15.633 0.275083C 15.2662 -0.0917146 14.6712 -0.0917138 14.3044 0.275201L 5.94988 8.62963L 1.60374 4.28349C 1.23683 3.91657 0.641984 3.91657 0.275186 4.28349C -0.0917284 4.6504 -0.0917284 5.24513 0.275186 5.61205L 5.28566 10.6225C 5.46906 10.806 5.70953 10.8977 5.94988 10.8977C 6.19024 10.8977 6.43082 10.806 6.6141 10.6225L 15.6329 1.60376C 15.9998 1.23673 15.9998 0.641998 15.633 0.275083Z"/>
<path id="path6_fill" d="M 100 50C 100 77.6142 77.6142 100 50 100C 22.3858 100 0 77.6142 0 50C 0 22.3858 22.3858 0 50 0C 77.6142 0 100 22.3858 100 50Z"/>
<path id="path7_stroke_2x" d="M 96 50C 96 75.4051 75.4051 96 50 96L 50 104C 79.8234 104 104 79.8234 104 50L 96 50ZM 50 96C 24.5949 96 4 75.4051 4 50L -4 50C -4 79.8234 20.1766 104 50 104L 50 96ZM 4 50C 4 24.5949 24.5949 4 50 4L 50 -4C 20.1766 -4 -4 20.1766 -4 50L 4 50ZM 50 4C 75.4051 4 96 24.5949 96 50L 104 50C 104 20.1766 79.8234 -4 50 -4L 50 4Z"/>
<path id="path8_fill" d="M 27 13.5C 27 20.9558 20.9558 27 13.5 27C 6.04416 27 0 20.9558 0 13.5C 0 6.04416 6.04416 0 13.5 0C 20.9558 0 27 6.04416 27 13.5Z"/>
<path id="path9_fill" d="M 6.29883 11L 0.708984 11L 0.708984 10.2207L 3.66211 6.93945C 4.09961 6.44336 4.40039 6.04102 4.56445 5.73242C 4.73242 5.41992 4.81641 5.09766 4.81641 4.76562C 4.81641 4.32031 4.68164 3.95508 4.41211 3.66992C 4.14258 3.38477 3.7832 3.24219 3.33398 3.24219C 2.79492 3.24219 2.375 3.39648 2.07422 3.70508C 1.77734 4.00977 1.62891 4.43555 1.62891 4.98242L 0.544922 4.98242C 0.544922 4.19727 0.796875 3.5625 1.30078 3.07812C 1.80859 2.59375 2.48633 2.35156 3.33398 2.35156C 4.12695 2.35156 4.75391 2.56055 5.21484 2.97852C 5.67578 3.39258 5.90625 3.94531 5.90625 4.63672C 5.90625 5.47656 5.37109 6.47656 4.30078 7.63672L 2.01562 10.1152L 6.29883 10.1152L 6.29883 11Z"/>
</defs>
</svg>
