<svg width="100" height="100" viewBox="0 0 100 100" version="1.1" xmlns="http://www.w3.org/2000/svg" xmlns:xlink="http://www.w3.org/1999/xlink">
<title>step-4</title>
<desc>Created using Figma</desc>
<g id="Canvas" transform="translate(-1536 278)">
<g id="step-4">
<g id="invoice">
<g id="Group">
<g id="Group">
<g id="Vector">
<use xlink:href="#path0_fill" transform="translate(1567 -254)" fill="#082F4B"/>
</g>
</g>
</g>
<g id="Group">
<g id="Group">
<g id="Vector">
<use xlink:href="#path1_fill" transform="translate(1570.68 -246.634)" fill="#082F4B"/>
</g>
</g>
</g>
<g id="Group">
<g id="Group">
<g id="Vector">
<use xlink:href="#path2_fill" transform="translate(1595.54 -246.634)" fill="#082F4B"/>
</g>
</g>
</g>
<g id="Group">
<g id="Group">
<g id="Vector">
<use xlink:href="#path3_fill" transform="translate(1591.86 -219.013)" fill="#3AA1C5"/>
</g>
</g>
</g>
<g id="Group">
<g id="Group">
<g id="Vector">
<use xlink:href="#path4_fill" transform="translate(1584.5 -250.317)" fill="#082F4B"/>
</g>
</g>
</g>
<g id="Group">
<g id="Group">
<g id="Vector">
<use xlink:href="#path5_fill" transform="translate(1595.54 -212.568)" fill="#3AA1C5"/>
</g>
</g>
</g>
<g id="Group">
<g id="Group">
<g id="Vector">
<use xlink:href="#path6_fill" transform="translate(1576.21 -241.11)" fill="#082F4B"/>
</g>
</g>
</g>
<g id="Group">
<g id="Group">
<g id="Vector">
<use xlink:href="#path7_fill" transform="translate(1588.18 -239.269)" fill="#082F4B"/>
</g>
</g>
</g>
<g id="Group">
<g id="Group">
<g id="Vector">
<use xlink:href="#path8_fill" transform="translate(1588.18 -235.586)" fill="#082F4B"/>
</g>
</g>
</g>
<g id="Group">
<g id="Group">
<g id="Vector">
<use xlink:href="#path9_fill" transform="translate(1588.18 -231.903)" fill="#082F4B"/>
</g>
</g>
</g>
<g id="Group">
<g id="Group">
<g id="Vector">
<use xlink:href="#path10_fill" transform="translate(1576.21 -223.616)" fill="#082F4B"/>
</g>
</g>
</g>
<g id="Group">
<g id="Group">
<g id="Vector">
<use xlink:href="#path11_fill" transform="translate(1576.21 -216.251)" fill="#082F4B"/>
</g>
</g>
</g>
<g id="Group">
<g id="Group">
<g id="Vector">
<use xlink:href="#path12_fill" transform="translate(1576.21 -219.933)" fill="#082F4B"/>
</g>
</g>
</g>
<g id="Group">
<g id="Group">
<g id="Vector">
<use xlink:href="#path13_fill" transform="translate(1581.73 -223.616)" fill="#082F4B"/>
</g>
</g>
</g>
<g id="Group">
<g id="Group">
<g id="Vector">
<use xlink:href="#path14_fill" transform="translate(1581.73 -216.251)" fill="#082F4B"/>
</g>
</g>
</g>
<g id="Group">
<g id="Group">
<g id="Vector">
<use xlink:href="#path15_fill" transform="translate(1581.73 -219.933)" fill="#082F4B"/>
</g>
</g>
</g>
</g>
<g id="Ellipse 4.2">
<mask id="mask0_outline_ins">
<use xlink:href="#path16_fill" fill="white" transform="translate(1536 -278)"/>
</mask>
<g mask="url(#mask0_outline_ins)">
<use xlink:href="#path17_stroke_2x" transform="translate(1536 -278)" fill="#FFFFFF"/>
</g>
</g>
<g id="Group 7.1">
<g id="Ellipse 4">
<use xlink:href="#path18_fill" transform="translate(1609 -278)" fill="#D1D1D1"/>
</g>
</g>
<g id="4">
<use xlink:href="#path19_fill" transform="translate(1619 -272)" fill="#082F4B"/>
</g>
</g>
</g>
<defs>
<path id="path0_fill" d="M 33.0883 3.68291L 26.4439 3.68291C 26.0827 2.61373 25.0708 1.84151 23.8813 1.84151L 21.992 1.84151C 21.139 0.69459 19.7881 0 18.357 0C 16.9258 0 15.5748 0.69459 14.722 1.8414L 12.8326 1.8414C 11.6431 1.8414 10.6312 2.61362 10.2701 3.6828L 3.62531 3.6828C 1.62627 3.6828 -1.90581e-07 5.30919 -1.90581e-07 7.30811L -1.90581e-07 45.9782C -1.90581e-07 47.9772 1.62638 49.6035 3.62531 49.6035L 22.0396 49.6035C 22.5163 49.6035 22.9029 49.2171 22.9029 48.7403C 22.9029 48.2636 22.5164 47.8771 22.0396 47.8771L 3.62531 47.8771C 2.5782 47.8771 1.7263 47.0252 1.7263 45.9781L 1.7263 7.30822C 1.7263 6.26111 2.5782 5.40921 3.62531 5.40921L 10.128 5.40921L 10.128 8.22892C 10.128 8.70558 10.5145 9.09212 10.9912 9.09212L 25.7227 9.09212C 26.1993 9.09212 26.5859 8.70569 26.5859 8.22892L 26.5859 5.40921L 33.0883 5.40921C 34.1354 5.40921 34.9873 6.26111 34.9873 7.30822L 34.9873 32.1676C 34.9873 32.6442 35.3737 33.0308 35.8505 33.0308C 36.3271 33.0308 36.7137 32.6443 36.7137 32.1676L 36.7137 7.30822C 36.7136 5.30919 35.0873 3.68291 33.0883 3.68291ZM 24.8596 7.36572L 11.8544 7.36572L 11.8544 4.54935C 11.8544 4.54816 11.8546 4.54719 11.8546 4.54601C 11.8546 4.54547 11.8544 4.54482 11.8544 4.54439C 11.8554 4.0056 12.2937 3.5677 12.8326 3.5677L 15.1848 3.5677C 15.4921 3.5677 15.7763 3.40436 15.9309 3.13863C 16.4457 2.25432 17.3526 1.7263 18.357 1.7263C 19.3613 1.7263 20.2682 2.25432 20.783 3.13863C 20.9375 3.40426 21.2218 3.5677 21.5291 3.5677L 23.8813 3.5677C 24.4195 3.5677 24.8575 4.00474 24.8595 4.54267C 24.8595 4.54385 24.8594 4.54482 24.8594 4.54601C 24.8594 4.54827 24.8597 4.55042 24.8597 4.55268L 24.8597 7.36572L 24.8596 7.36572Z"/>
<path id="path1_fill" d="M 18.3565 36.8287L 1.7263 36.8287L 1.7263 1.72641L 3.62563 1.72641C 4.10229 1.72641 4.48884 1.33997 4.48884 0.863204C 4.48884 0.386434 4.1024 -3.68019e-07 3.62563 -3.68019e-07L 0.863204 -3.68019e-07C 0.386541 -3.68019e-07 6.57176e-09 0.386434 6.57176e-09 0.863204L 6.57176e-09 37.6919C 6.57176e-09 38.1686 0.386434 38.5551 0.863204 38.5551L 18.3566 38.5551C 18.8333 38.5551 19.2198 38.1687 19.2198 37.6919C 19.2197 37.2151 18.8333 36.8287 18.3565 36.8287Z"/>
<path id="path2_fill" d="M 3.62531 -3.68019e-07L 0.863205 -3.68019e-07C 0.386542 -3.68019e-07 4.73167e-07 0.386434 4.73167e-07 0.863204C 4.73167e-07 1.33997 0.386434 1.72641 0.863205 1.72641L 2.76221 1.72641L 2.76221 24.8016C 2.76221 25.2783 3.14864 25.6648 3.62541 25.6648C 4.10218 25.6648 4.48862 25.2784 4.48862 24.8016L 4.48862 0.863204C 4.48851 0.386542 4.10197 -3.68019e-07 3.62531 -3.68019e-07Z"/>
<path id="path3_fill" d="M 10.0703 2.6287e-08C 4.51748 2.6287e-08 -1.36693e-06 4.51747 -1.36693e-06 10.0703C -1.36693e-06 15.6232 4.51758 20.1406 10.0703 20.1406C 15.6231 20.1406 20.1406 15.6232 20.1406 10.0703C 20.1406 4.51747 15.6232 2.6287e-08 10.0703 2.6287e-08ZM 10.0703 18.4143C 5.4694 18.4143 1.7263 14.6712 1.7263 10.0703C 1.7263 5.4694 5.4694 1.7263 10.0703 1.7263C 14.6712 1.7263 18.4143 5.4694 18.4143 10.0703C 18.4143 14.6712 14.6714 18.4143 10.0703 18.4143Z"/>
<path id="path4_fill" d="M 0.867834 1.97153e-07L 0.858574 1.97153e-07C 0.381911 1.97153e-07 -3.15445e-07 0.386434 -3.15445e-07 0.863204C -3.15445e-07 1.33987 0.390956 1.72641 0.867727 1.72641C 1.34439 1.72641 1.73093 1.33997 1.73093 0.863204C 1.73104 0.386434 1.3446 1.97153e-07 0.867834 1.97153e-07Z"/>
<path id="path5_fill" d="M 11.6014 0.25284C 11.2644 -0.0842807 10.7178 -0.0842807 10.3808 0.25284L 4.54604 6.08757L 1.47351 3.01505C 1.13639 2.67793 0.589852 2.67793 0.25284 3.01505C -0.0842804 3.35217 -0.0842804 3.89871 0.25284 4.23572L 3.93575 7.91864C 4.10426 8.08714 4.3252 8.17145 4.54604 8.17145C 4.76687 8.17145 4.98781 8.08725 5.15632 7.91864L 11.6013 1.47362C 11.9385 1.1364 11.9385 0.589852 11.6014 0.25284Z"/>
<path id="path6_fill" d="M 5.40932 6.20125L 5.40932 2.71936C 6.62547 2.92759 7.36582 3.54714 7.36582 3.99947C 7.36582 4.47613 7.75226 4.86267 8.22903 4.86267C 8.7058 4.86267 9.09223 4.47624 9.09223 3.99947C 9.09223 2.47365 7.53185 1.24081 5.40932 0.974753L 5.40932 0.863205C 5.40932 0.386542 5.02289 -3.94306e-07 4.54612 -3.94306e-07C 4.06935 -3.94306e-07 3.68291 0.386434 3.68291 0.863205L 3.68291 0.974753C 1.56038 1.2407 8.01755e-07 2.47354 8.01755e-07 3.99947C 8.01755e-07 6.16087 2.02735 6.99145 3.68291 7.4946L 3.68291 10.9765C 2.46676 10.7683 1.72641 10.1487 1.72641 9.69638C 1.72641 9.21972 1.33998 8.83318 0.863205 8.83318C 0.386434 8.83318 8.01755e-07 9.21961 8.01755e-07 9.69638C 8.01755e-07 11.2222 1.56038 12.455 3.68291 12.7211L 3.68291 12.8326C 3.68291 13.3093 4.06935 13.6958 4.54612 13.6958C 5.02289 13.6958 5.40932 13.3094 5.40932 12.8326L 5.40932 12.7211C 7.53185 12.4551 9.09223 11.2223 9.09223 9.69638C 9.09212 7.53508 7.06488 6.7044 5.40932 6.20125ZM 3.68291 5.67387C 2.22676 5.16641 1.72641 4.70881 1.72641 3.99947C 1.72641 3.72652 1.96716 3.42504 2.38687 3.17255C 2.74154 2.95914 3.1915 2.80485 3.68291 2.72054L 3.68291 5.67387L 3.68291 5.67387ZM 6.70536 10.5233C 6.35069 10.7367 5.90073 10.891 5.40932 10.9753L 5.40932 8.02197C 6.86547 8.52943 7.36582 8.98704 7.36582 9.69638C 7.36582 9.96943 7.12507 10.2708 6.70536 10.5233Z"/>
<path id="path7_fill" d="M 5.46682 -7.36037e-07L 0.863204 -7.36037e-07C 0.386541 -7.36037e-07 7.88611e-08 0.386435 7.88611e-08 0.863205C 7.88611e-08 1.33998 0.386434 1.72641 0.863204 1.72641L 5.46682 1.72641C 5.94348 1.72641 6.33002 1.33998 6.33002 0.863205C 6.33002 0.386435 5.94359 -7.36037e-07 5.46682 -7.36037e-07Z"/>
<path id="path8_fill" d="M 3.62531 -5.38884e-07L 0.863205 -5.38884e-07C 0.386542 -5.38884e-07 -8.01755e-07 0.386433 -8.01755e-07 0.863204C -8.01755e-07 1.33997 0.386434 1.72641 0.863205 1.72641L 3.62531 1.72641C 4.10197 1.72641 4.48851 1.33997 4.48851 0.863204C 4.48851 0.386433 4.10197 -5.38884e-07 3.62531 -5.38884e-07Z"/>
<path id="path9_fill" d="M 5.46682 -3.41732e-07L 0.863204 -3.41732e-07C 0.386541 -3.41732e-07 7.88611e-08 0.386433 7.88611e-08 0.863204C 7.88611e-08 1.33997 0.386434 1.72641 0.863204 1.72641L 5.46682 1.72641C 5.94348 1.72641 6.33002 1.33997 6.33002 0.863204C 6.33002 0.386433 5.94359 -3.41732e-07 5.46682 -3.41732e-07Z"/>
<path id="path10_fill" d="M 2.70461 -1.26178e-06L 0.863204 -1.26178e-06C 0.386541 -1.26178e-06 -7.88611e-08 0.386432 -7.88611e-08 0.863203C -7.88611e-08 1.33997 0.386434 1.72641 0.863204 1.72641L 2.70461 1.72641C 3.18127 1.72641 3.56781 1.33997 3.56781 0.863203C 3.56781 0.386432 3.18127 -1.26178e-06 2.70461 -1.26178e-06Z"/>
<path id="path11_fill" d="M 2.70461 -1.6298e-06L 0.863204 -1.6298e-06C 0.386541 -1.6298e-06 -7.88611e-08 0.386435 -7.88611e-08 0.863206C -7.88611e-08 1.33998 0.386434 1.72641 0.863204 1.72641L 2.70461 1.72641C 3.18127 1.72641 3.56781 1.33998 3.56781 0.863206C 3.56781 0.386435 3.18127 -1.6298e-06 2.70461 -1.6298e-06Z"/>
<path id="path12_fill" d="M 2.70461 5.78315e-07L 0.863204 5.78315e-07C 0.386541 5.78315e-07 -7.88611e-08 0.386434 -7.88611e-08 0.863205C -7.88611e-08 1.33998 0.386434 1.72641 0.863204 1.72641L 2.70461 1.72641C 3.18127 1.72641 3.56781 1.33998 3.56781 0.863205C 3.56781 0.386434 3.18127 5.78315e-07 2.70461 5.78315e-07Z"/>
<path id="path13_fill" d="M 11.9118 -1.26178e-06L 0.863204 -1.26178e-06C 0.386541 -1.26178e-06 -1.05148e-07 0.386432 -1.05148e-07 0.863203C -1.05148e-07 1.33997 0.386434 1.72641 0.863204 1.72641L 11.9118 1.72641C 12.3885 1.72641 12.775 1.33997 12.775 0.863203C 12.775 0.386432 12.3886 -1.26178e-06 11.9118 -1.26178e-06Z"/>
<path id="path14_fill" d="M 9.14962 -1.6298e-06L 0.863205 -1.6298e-06C 0.386542 -1.6298e-06 6.57176e-07 0.386435 6.57176e-07 0.863206C 6.57176e-07 1.33998 0.386434 1.72641 0.863205 1.72641L 9.14962 1.72641C 9.62628 1.72641 10.0128 1.33998 10.0128 0.863206C 10.0128 0.386435 9.62628 -1.6298e-06 9.14962 -1.6298e-06Z"/>
<path id="path15_fill" d="M 11.9118 5.78315e-07L 0.863204 5.78315e-07C 0.386541 5.78315e-07 -1.05148e-07 0.386434 -1.05148e-07 0.863205C -1.05148e-07 1.33998 0.386434 1.72641 0.863204 1.72641L 11.9118 1.72641C 12.3885 1.72641 12.775 1.33998 12.775 0.863205C 12.775 0.386434 12.3886 5.78315e-07 11.9118 5.78315e-07Z"/>
<path id="path16_fill" d="M 100 50C 100 77.6142 77.6142 100 50 100C 22.3858 100 0 77.6142 0 50C 0 22.3858 22.3858 0 50 0C 77.6142 0 100 22.3858 100 50Z"/>
<path id="path17_stroke_2x" d="M 96 50C 96 75.4051 75.4051 96 50 96L 50 104C 79.8234 104 104 79.8234 104 50L 96 50ZM 50 96C 24.5949 96 4 75.4051 4 50L -4 50C -4 79.8234 20.1766 104 50 104L 50 96ZM 4 50C 4 24.5949 24.5949 4 50 4L 50 -4C 20.1766 -4 -4 20.1766 -4 50L 4 50ZM 50 4C 75.4051 4 96 24.5949 96 50L 104 50C 104 20.1766 79.8234 -4 50 -4L 50 4Z"/>
<path id="path18_fill" d="M 27 13.5C 27 20.9558 20.9558 27 13.5 27C 6.04416 27 0 20.9558 0 13.5C 0 6.04416 6.04416 0 13.5 0C 20.9558 0 27 6.04416 27 13.5Z"/>
<path id="path19_fill" d="M 5.28516 8.13477L 6.46875 8.13477L 6.46875 9.01953L 5.28516 9.01953L 5.28516 11L 4.19531 11L 4.19531 9.01953L 0.310547 9.01953L 0.310547 8.38086L 4.13086 2.46875L 5.28516 2.46875L 5.28516 8.13477ZM 1.54102 8.13477L 4.19531 8.13477L 4.19531 3.95117L 4.06641 4.18555L 1.54102 8.13477Z"/>
</defs>
</svg>
