<svg width="100" height="100" viewBox="0 0 100 100" version="1.1" xmlns="http://www.w3.org/2000/svg" xmlns:xlink="http://www.w3.org/1999/xlink">
<title>step-1</title>
<desc>Created using Figma</desc>
<g id="Canvas" transform="translate(-1110 278)">
<g id="step-1">
<g id="Ellipse 4">
<mask id="mask0_outline_ins">
<use xlink:href="#path0_fill" fill="white" transform="translate(1110 -278)"/>
</mask>
<g mask="url(#mask0_outline_ins)">
<use xlink:href="#path1_stroke_2x" transform="translate(1110 -278)" fill="#FFFFFF"/>
</g>
</g>
<g id="24-hours">
<g id="Group">
<g id="Group">
<g id="Vector">
<use xlink:href="#path2_fill" transform="translate(1133 -245.339)" fill="#082F4B"/>
</g>
</g>
</g>
<g id="Group">
<g id="Group">
<g id="Vector">
<use xlink:href="#path3_fill" transform="translate(1163.24 -238.041)" fill="#3AA1C5"/>
</g>
</g>
</g>
<g id="Group">
<g id="Group">
<g id="Vector">
<use xlink:href="#path4_fill" transform="translate(1153.73 -238.041)" fill="#3AA1C5"/>
</g>
</g>
</g>
<g id="Group">
<g id="Group">
<g id="Vector">
<use xlink:href="#path5_fill" transform="translate(1146.82 -251)" fill="#082F4B"/>
</g>
</g>
</g>
<g id="Group">
<g id="Group">
<g id="Vector">
<use xlink:href="#path6_fill" transform="translate(1162.37 -247.544)" fill="#3AA1C5"/>
</g>
</g>
</g>
<g id="Group">
<g id="Group">
<g id="Vector">
<use xlink:href="#path7_fill" transform="translate(1176.2 -231.994)" fill="#3AA1C5"/>
</g>
</g>
</g>
<g id="Group">
<g id="Group">
<g id="Vector">
<use xlink:href="#path8_fill" transform="translate(1148.91 -239.769)" fill="#3AA1C5"/>
</g>
</g>
</g>
<g id="Group">
<g id="Group">
<g id="Vector">
<use xlink:href="#path9_fill" transform="translate(1174.34 -225.083)" fill="#3AA1C5"/>
</g>
</g>
</g>
<g id="Group">
<g id="Group">
<g id="Vector">
<use xlink:href="#path10_fill" transform="translate(1169.29 -245.461)" fill="#3AA1C5"/>
</g>
</g>
</g>
<g id="Group">
<g id="Group">
<g id="Vector">
<use xlink:href="#path11_fill" transform="translate(1154.6 -220.023)" fill="#3AA1C5"/>
</g>
</g>
</g>
<g id="Group">
<g id="Group">
<g id="Vector">
<use xlink:href="#path12_fill" transform="translate(1174.34 -239.769)" fill="#3AA1C5"/>
</g>
</g>
</g>
<g id="Group">
<g id="Group">
<g id="Vector">
<use xlink:href="#path13_fill" transform="translate(1148.91 -225.083)" fill="#3AA1C5"/>
</g>
</g>
</g>
<g id="Group">
<g id="Group">
<g id="Vector">
<use xlink:href="#path14_fill" transform="translate(1154.6 -245.461)" fill="#3AA1C5"/>
</g>
</g>
</g>
<g id="Group">
<g id="Group">
<g id="Vector">
<use xlink:href="#path15_fill" transform="translate(1169.29 -220.023)" fill="#3AA1C5"/>
</g>
</g>
</g>
</g>
<g id="Group 7">
<g id="Ellipse 4">
<use xlink:href="#path16_fill" transform="translate(1183 -278)" fill="#D1D1D1"/>
</g>
<g id="1">
<use xlink:href="#path17_fill" transform="translate(1193 -272)" fill="#082F4B"/>
</g>
</g>
</g>
</g>
<defs>
<path id="path0_fill" d="M 100 50C 100 77.6142 77.6142 100 50 100C 22.3858 100 0 77.6142 0 50C 0 22.3858 22.3858 0 50 0C 77.6142 0 100 22.3858 100 50Z"/>
<path id="path1_stroke_2x" d="M 96 50C 96 75.4051 75.4051 96 50 96L 50 104C 79.8234 104 104 79.8234 104 50L 96 50ZM 50 96C 24.5949 96 4 75.4051 4 50L -4 50C -4 79.8234 20.1766 104 50 104L 50 96ZM 4 50C 4 24.5949 24.5949 4 50 4L 50 -4C 20.1766 -4 -4 20.1766 -4 50L 4 50ZM 50 4C 75.4051 4 96 24.5949 96 50L 104 50C 104 20.1766 79.8234 -4 50 -4L 50 4Z"/>
<path id="path2_fill" d="M 42.5784 34.6625C 42.4356 33.6242 41.8342 32.7363 40.928 32.2267L 32.2788 27.3615C 30.9549 26.6168 29.28 26.8469 28.2058 27.921L 25.1686 30.9582C 24.5464 31.5804 23.5503 31.6579 22.8513 31.1386C 20.7528 29.5794 18.702 27.802 16.7555 25.8555C 14.8091 23.9091 13.0316 21.8581 11.4724 19.7597C 10.953 19.0608 11.0306 18.0646 11.6527 17.4424L 14.6899 14.4052C 15.7642 13.331 15.9942 11.6561 15.2494 10.3322L 10.3844 1.68294C 9.87471 0.776785 8.98691 0.17532 7.94854 0.0326444C 6.86055 -0.11677 5.78291 0.251297 4.9917 1.0428L 1.78828 4.24622C -0.474802 6.5093 -0.593747 10.5609 1.45323 15.6547C 3.41133 20.5276 7.1374 25.8588 11.9448 30.6662C 16.7523 35.4738 22.0835 39.1998 26.9563 41.1578C 29.3692 42.1275 31.5479 42.6111 33.4138 42.6111C 35.4868 42.6111 37.1736 42.0139 38.3647 40.8228L 41.5682 37.6194C 42.3596 36.828 42.7277 35.7503 42.5784 34.6625ZM 40.4227 36.474L 39.8629 37.0337L 32.4893 33.0117C 32.0965 32.7973 31.6046 32.9422 31.3904 33.335C 31.1762 33.7277 31.3209 34.2196 31.7137 34.4338L 38.669 38.2277L 37.2192 39.6775C 35.4697 41.4269 31.9491 41.4186 27.5602 39.655C 22.8854 37.7764 17.7466 34.1775 13.09 29.5209C 8.43379 24.8644 4.83467 19.7254 2.95615 15.0507C 1.19248 10.6615 1.18428 7.14104 2.93369 5.39163L 4.3832 3.94182L 5.1586 5.36331C 5.30567 5.63284 5.5835 5.78557 5.87031 5.78557C 6.00127 5.78557 6.13428 5.75374 6.25733 5.68655C 6.65 5.47229 6.79483 4.9803 6.58057 4.58762L 5.57735 2.74798L 6.13701 2.18831C 6.50498 1.82053 6.98272 1.62044 7.47715 1.62044C 7.56045 1.62044 7.64434 1.6262 7.72813 1.63762C 8.25986 1.71067 8.71357 2.01663 8.97256 2.47727L 13.8376 11.1265C 14.2276 11.82 14.1072 12.6973 13.5445 13.2599L 12.0993 14.7052L 8.30664 7.75188C 8.09248 7.35921 7.60049 7.21438 7.20781 7.42864C 6.81514 7.6428 6.67031 8.13479 6.88457 8.52747L 10.9055 15.8989L 10.5074 16.297C 9.32149 17.4829 9.17744 19.3869 10.1723 20.7258C 11.7785 22.8874 13.608 24.9988 15.6101 27.0009C 17.6122 29.003 19.7235 30.8326 21.8852 32.4387C 23.2239 33.4336 25.1278 33.2895 26.314 32.1035L 26.712 31.7055L 28.5513 32.7087C 28.6745 32.776 28.8073 32.8077 28.9383 32.8077C 29.2251 32.8077 29.5029 32.655 29.65 32.3855C 29.8643 31.9928 29.7195 31.5008 29.3268 31.2866L 27.9058 30.5114L 29.351 29.0662C 29.9136 28.5036 30.7909 28.3831 31.4846 28.7732L 40.1338 33.6382C 40.5943 33.8973 40.9004 34.3509 40.9734 34.8826C 41.0533 35.4642 40.8526 36.0442 40.4227 36.474Z"/>
<path id="path3_fill" d="M 8.58533 7.77545L 7.66746 7.77545L 7.66746 0.810123C 7.66746 0.362858 7.30486 0.000163515 6.8575 0.000163515C 6.41023 0.000163515 6.04754 0.36276 6.04754 0.810123L 6.04754 7.77545L 1.8197 7.77545L 3.32849 0.985807C 3.42546 0.549186 3.15017 0.116472 2.71346 0.0194993C 2.27664 -0.0776687 1.84422 0.197819 1.74715 0.63444L 0.0193139 8.40973C -0.0340064 8.64958 0.0243935 8.90055 0.178202 9.09225C 0.331913 9.28385 0.564237 9.39538 0.80994 9.39538L 6.04744 9.39538L 6.04744 12.0411C 6.04744 12.4883 6.41004 12.851 6.8574 12.851C 7.30466 12.851 7.66736 12.4884 7.66736 12.0411L 7.66736 9.39528L 8.58523 9.39528C 9.0325 9.39528 9.39519 9.03268 9.39519 8.58532C 9.39519 8.13805 9.03259 7.77545 8.58533 7.77545Z"/>
<path id="path4_fill" d="M 7.72139 11.231L 1.76055 11.231C 2.11289 10.3031 3.10996 9.71308 4.54805 8.92832C 6.32275 7.95986 8.53135 6.75459 8.53135 4.01875C 8.53135 1.80283 6.61777 6.19888e-07 4.26572 6.19888e-07C 1.91367 6.19888e-07 9.81569e-05 1.80273 9.81569e-05 4.01875C 9.81569e-05 4.46601 0.362695 4.82871 0.810058 4.82871C 1.25732 4.82871 1.62002 4.46611 1.62002 4.01875C 1.62002 2.696 2.80693 1.61982 4.26572 1.61982C 5.72451 1.61982 6.91143 2.6959 6.91143 4.01875C 6.91133 5.67383 5.72539 6.44043 3.77197 7.50635C 2.004 8.47119 -1.90735e-07 9.56484 -1.90735e-07 12.0408C -1.90735e-07 12.4881 0.362598 12.8508 0.809961 12.8508L 7.72129 12.8508C 8.16855 12.8508 8.53125 12.4882 8.53125 12.0408C 8.53125 11.5935 8.16865 11.231 7.72139 11.231Z"/>
<path id="path5_fill" d="M 31.7524 33.7086L 30.175 34.024C 34.008 30.3014 36.1768 25.2099 36.1768 19.8161C 36.1768 8.88955 27.2873 -2.75671e-08 16.3607 -2.75671e-08C 9.92101 -2.75671e-08 3.86007 3.14746 0.147768 8.41953C -0.109752 8.78525 -0.0220569 9.29053 0.343666 9.54814C 0.709291 9.80566 1.21456 9.71797 1.47218 9.35224C 4.88165 4.51045 10.4474 1.61982 16.3608 1.61982C 26.3942 1.61982 34.557 9.78262 34.557 19.8161C 34.557 24.8414 32.5055 29.5801 28.8888 33.0111L 29.2499 31.2059C 29.3376 30.7672 29.0531 30.3405 28.6145 30.2528C 28.1759 30.165 27.7491 30.4496 27.6614 30.8883L 26.7976 35.2079C 26.7444 35.4734 26.8275 35.7479 27.0191 35.9394C 27.1724 36.0928 27.3791 36.1767 27.5917 36.1767C 27.6445 36.1767 27.6977 36.1715 27.7506 36.1609L 32.0702 35.297C 32.5089 35.2092 32.7934 34.7825 32.7057 34.3439C 32.6176 33.9054 32.1908 33.6211 31.7524 33.7086Z"/>
<path id="path6_fill" d="M 0.809962 -1.51992e-07C 0.362696 -1.51992e-07 1.43051e-07 0.362598 1.43051e-07 0.809961L 1.43051e-07 2.53779C 1.43051e-07 2.98506 0.362598 3.34775 0.809962 3.34775C 1.25723 3.34775 1.61992 2.98516 1.61992 2.53779L 1.61992 0.809961C 1.61983 0.362695 1.25732 -1.51992e-07 0.809962 -1.51992e-07Z"/>
<path id="path7_fill" d="M 2.53779 1.19209e-07L 0.809962 1.19209e-07C 0.362697 1.19209e-07 7.62939e-07 0.362598 7.62939e-07 0.809962C 7.62939e-07 1.25723 0.362599 1.61992 0.809962 1.61992L 2.53779 1.61992C 2.98506 1.61992 3.34775 1.25732 3.34775 0.809962C 3.34775 0.362598 2.98506 1.19209e-07 2.53779 1.19209e-07Z"/>
<path id="path8_fill" d="M 2.71127 0.972546L 1.21498 0.108678C 0.827482 -0.115052 0.332268 0.0177606 0.108635 0.405065C -0.114998 0.792468 0.0177176 1.28778 0.405022 1.51141L 1.90131 2.37528C 2.02885 2.44891 2.16811 2.48387 2.30551 2.48387C 2.58539 2.48387 2.85766 2.33856 3.00766 2.07879C 3.23129 1.69149 3.09858 1.19618 2.71127 0.972546Z"/>
<path id="path9_fill" d="M 2.71129 0.972644L 1.215 0.108678C 0.827602 -0.115052 0.332289 0.0177606 0.108656 0.405065C -0.114977 0.79237 0.0176406 1.28778 0.405043 1.51141L 1.90133 2.37528C 2.02887 2.44891 2.16813 2.48387 2.30553 2.48387C 2.58541 2.48387 2.85768 2.33856 3.00768 2.0788C 3.23141 1.69159 3.09869 1.19628 2.71129 0.972644Z"/>
<path id="path10_fill" d="M 2.07885 0.108679C 1.69145 -0.115052 1.19613 0.0177603 0.972501 0.405065L 0.108636 1.90135C -0.114997 2.28876 0.0177186 2.78407 0.405023 3.0077C 0.532562 3.08133 0.67172 3.1163 0.80922 3.1163C 1.0891 3.1163 1.36137 2.97098 1.51137 2.71122L 2.37534 1.21493C 2.59897 0.827721 2.46625 0.332311 2.07885 0.108679Z"/>
<path id="path11_fill" d="M 2.07885 0.108677C 1.69145 -0.115053 1.19623 0.0177596 0.972503 0.405064L 0.108635 1.90136C -0.114998 2.28876 0.0177172 2.78407 0.405022 3.0077C 0.532561 3.08133 0.671818 3.11629 0.80922 3.11629C 1.0891 3.11629 1.36137 2.97098 1.51137 2.71122L 2.37533 1.21493C 2.59897 0.827623 2.46625 0.33231 2.07885 0.108677Z"/>
<path id="path12_fill" d="M 3.00772 0.405087C 2.78409 0.0176843 2.28858 -0.115031 1.90138 0.1087L 0.405087 0.972664C 0.0176847 1.1963 -0.11503 1.69161 0.1087 2.07901C 0.2587 2.33888 0.530966 2.48409 0.810849 2.48409C 0.948251 2.48409 1.08751 2.44913 1.21505 2.3755L 2.71134 1.51163C 3.09864 1.2878 3.23136 0.792391 3.00772 0.405087Z"/>
<path id="path13_fill" d="M 3.00772 0.405131C 2.78409 0.0177283 2.28868 -0.115085 1.90137 0.108744L 0.405087 0.972707C 0.0176846 1.19634 -0.115031 1.69165 0.1087 2.07906C 0.2587 2.33892 0.530966 2.48413 0.810848 2.48413C 0.948251 2.48413 1.08751 2.44917 1.21505 2.37554L 2.71134 1.51167C 3.09864 1.28784 3.23136 0.792435 3.00772 0.405131Z"/>
<path id="path14_fill" d="M 2.3753 1.90144L 1.51143 0.405151C 1.2878 0.0176509 0.79239 -0.115064 0.405086 0.108765C 0.0176835 0.332397 -0.11503 0.827808 0.1087 1.21511L 0.972665 2.7114C 1.12276 2.97126 1.39503 3.11648 1.67481 3.11648C 1.81222 3.11648 1.95147 3.08152 2.07901 3.00788C 2.46622 2.78415 2.59893 2.28874 2.3753 1.90144Z"/>
<path id="path15_fill" d="M 2.3753 1.90138L 1.51143 0.405086C 1.2878 0.0176833 0.792393 -0.115032 0.405088 0.108699C 0.0176856 0.332331 -0.11503 0.827645 0.108701 1.21505L 0.972566 2.71133C 1.12257 2.9712 1.39483 3.11641 1.67471 3.11641C 1.81212 3.11641 1.95138 3.08145 2.07891 3.00782C 2.46622 2.78409 2.59893 2.28878 2.3753 1.90138Z"/>
<path id="path16_fill" d="M 27 13.5C 27 20.9558 20.9558 27 13.5 27C 6.04416 27 0 20.9558 0 13.5C 0 6.04416 6.04416 0 13.5 0C 20.9558 0 27 6.04416 27 13.5Z"/>
<path id="path17_fill" d="M 4.27148 11L 3.18164 11L 3.18164 3.77539L 0.996094 4.57812L 0.996094 3.59375L 4.10156 2.42773L 4.27148 2.42773L 4.27148 11Z"/>
</defs>
</svg>
