<svg width="50" height="50" viewBox="0 0 50 50" version="1.1" xmlns="http://www.w3.org/2000/svg" xmlns:xlink="http://www.w3.org/1999/xlink">
<title>success</title>
<desc>Created using Figma</desc>
<g id="Canvas" transform="translate(-2433 726)">
<g id="success">
<g id="Group">
<g id="Vector">
<use xlink:href="#path0_fill" transform="translate(2433 -726)" fill="#FFFFFF"/>
</g>
<g id="Vector">
<use xlink:href="#path1_fill" transform="translate(2444.54 -711.577)" fill="#FFFFFF"/>
</g>
</g>
</g>
</g>
<defs>
<path id="path0_fill" d="M 25 0C 11.2154 0 0 11.2144 0 25C 0 38.7856 11.2154 50 25 50C 38.7846 50 50 38.7856 50 25C 50 11.2144 38.7846 0 25 0ZM 25 48.0769C 12.276 48.0769 1.92308 37.724 1.92308 25C 1.92308 12.276 12.276 1.92308 25 1.92308C 37.724 1.92308 48.0769 12.276 48.0769 25C 48.0769 37.724 37.724 48.0769 25 48.0769Z"/>
<path id="path1_fill" d="M 25.2425 0.323534L 10.4646 16.9485L 1.56168 9.82642C 1.14822 9.49469 0.54149 9.56296 0.210721 9.97642C -0.12101 10.3918 -0.053702 10.9966 0.360721 11.3283L 9.97611 19.0206C 10.153 19.162 10.3655 19.2312 10.5771 19.2312C 10.8425 19.2312 11.1069 19.1216 11.2963 18.9082L 26.6809 1.60046C 27.0338 1.2043 26.9982 0.595649 26.6011 0.243726C 26.203 -0.11012 25.5963 -0.0745431 25.2425 0.323534Z"/>
</defs>
</svg>
